<svg width="120" height="98" viewBox="0 0 120 98" fill="none" xmlns="http://www.w3.org/2000/svg">
<path d="M120.001 61.2678C120.001 78.1372 89.9813 71.9253 81.3788 78.4948C74.1347 84.0268 35.6712 111.56 38.5886 89.4703C41.5061 67.3807 8.58008 73.6323 8.58008 56.1272C8.58008 44.2954 26.7857 39.1294 32.198 29.8697C41.0004 14.8099 29.6414 0 38.5886 0C48.0561 0 61.8806 9.55674 70.8202 29.8697C75.5235 40.5569 120.001 50.5548 120.001 61.2678Z" fill="url(#paint0_linear_189_5217)"/>
<ellipse cx="54.0657" cy="62.6368" rx="1.48903" ry="1.89513" transform="rotate(24.4639 54.0657 62.6368)" fill="white"/>
<ellipse cx="60.5879" cy="55.7753" rx="1.90432" ry="2.5968" transform="rotate(-110.868 60.5879 55.7753)" fill="white"/>
<path d="M63.1803 65.212L58.6532 63.5788L62.3311 60.4749L63.1803 65.212Z" fill="white"/>
<g clip-path="url(#clip0_189_5217)">
<path d="M43.1122 19.0962C44.3607 22.5959 43.2651 26.5911 40.9098 28.3867C40.9795 27.5804 41.0471 26.8045 41.1309 26.0144C41.2476 24.7369 41.0393 23.5133 40.569 22.3175C40.4251 21.9555 40.3015 21.5183 39.8791 21.4278C39.3958 21.333 39.2126 21.7795 39.0215 22.1183C37.9722 23.8362 36.6895 25.3848 35.3053 26.8499C33.8723 28.3576 33.3423 28.2749 32.257 26.4394C31.762 25.6092 31.4743 24.6556 30.4818 23.7144C31.5536 27.3396 31.2101 30.3921 28.5071 32.8065C25.7228 35.2917 22.6055 34.7693 19.4115 33.5681C20.1868 34.326 21.0171 34.9499 21.8494 35.5433C23.4977 36.7444 23.483 37.4168 21.7964 38.6007C20.1423 39.7563 18.4618 40.8488 16.5886 41.6218C16.2574 41.7672 15.8653 41.9083 15.8386 42.3044C15.7916 42.7756 16.222 42.9739 16.5448 43.1799C17.8685 43.9758 19.2919 44.4266 20.8558 44.3821C21.2702 44.3649 21.7211 44.2584 22.1209 44.6841C21.3446 45.3037 20.4751 45.7178 19.5264 45.9428C15.7785 46.8306 12.6617 45.6195 10.0782 42.8536C6.95919 39.1782 6.93171 32.3195 12.3344 29.3578C13.3036 28.8282 13.7409 28.0167 13.4004 26.937C11.5426 20.6707 17.9959 14.1545 25.0396 16.8166C26.1889 17.2484 26.9121 16.9619 27.5363 16.1022C30.3867 12.1828 36.1817 11.5748 39.9125 14.5733C41.2482 15.6455 42.2912 16.973 43.0131 18.523C43.0252 18.5697 43.1122 19.0962 43.1122 19.0962Z" fill="white"/>
<path d="M40.0303 14.413C38.1568 12.9209 35.6774 12.2437 33.2074 12.5621C30.7983 12.8847 28.7116 14.1021 27.3453 15.9817C26.7374 16.8272 26.0833 16.9961 25.0985 16.6217C21.7706 15.3653 18.2523 16.0242 15.6895 18.4023C13.2404 20.6812 12.2692 23.9657 13.1809 27.0135C13.4686 27.9671 13.1452 28.6793 12.2085 29.1806C9.88813 30.4583 8.35315 32.5711 7.88818 35.156C7.38043 37.9217 8.14191 40.9285 9.89927 43.0095C9.94188 43.0584 9.9845 43.1072 10.0434 43.1419C10.0636 43.2964 10.1305 43.4388 10.2137 43.567C13.1633 48.3939 19.1683 49.4381 22.8402 46.9532C24.4598 45.8565 24.4882 45.889 25.7646 47.3857C25.9777 47.6301 26.1908 47.8744 26.3876 48.133C27.5788 49.5319 27.9281 49.5714 29.3446 48.3076C30.7124 47.0862 32.0213 45.8302 33.3891 44.6088C36.5616 41.8138 39.7646 39.0209 43.0365 36.3399C44.8025 34.886 44.7782 34.7925 43.2745 33.0352C38.1368 37.5152 32.997 42.0256 27.8592 46.5056C26.7049 47.5122 26.386 47.4747 25.475 46.233C25.3208 46.0233 25.1808 45.83 25.0103 45.6345C23.5391 43.8488 23.5533 43.8651 25.0027 42.1137C28.67 37.6541 32.3088 33.162 35.9619 28.6861C36.1448 28.4692 36.3136 28.2361 36.527 28.0213C37.7425 26.7894 38.1385 26.8168 39.2912 28.106C40.1314 29.0367 41.0386 29.8802 41.9438 30.7542C44.9498 27.9323 45.6987 23.1784 43.7068 19.5812C43.5973 19.3899 43.5345 19.1866 43.3558 19.1129C43.3578 19.0825 43.3294 19.0499 43.3315 19.0194C43.2445 18.493 43.2324 18.4463 43.204 18.4137C42.4374 16.8453 41.3802 15.5016 40.0303 14.413ZM42.8078 18.6158C42.8341 18.6788 42.8624 18.941 42.8947 19.1422L42.9069 19.1889C43.9993 22.2799 43.2452 25.9774 41.1721 27.8997L41.1844 27.7169C41.2376 27.1543 41.2888 26.6222 41.342 26.0596C41.4567 24.8125 41.2525 23.528 40.772 22.2549L40.7335 22.1451C40.5896 21.7831 40.4213 21.3276 39.9076 21.2307C39.6354 21.1812 39.416 21.2578 39.2534 21.3996C39.0909 21.5414 38.9709 21.732 38.8997 21.8801C38.8814 21.9248 38.8489 21.9531 38.8305 21.9978C37.9196 23.4804 36.7465 24.9908 35.1327 26.6848C34.4416 27.4021 33.9925 27.7077 33.6737 27.6702C33.3243 27.6307 32.9834 27.2397 32.4337 26.3139C32.3099 26.1063 32.2025 25.8846 32.0808 25.6465C31.7421 24.9955 31.379 24.251 30.6301 23.5562L30.0557 22.9959L30.2786 23.7767C31.4253 27.652 30.8221 30.4722 28.3649 32.6434C25.5643 35.1428 22.4411 34.4823 19.5009 33.3752L18.5304 33.0171L19.2773 33.7424C20.081 34.5328 20.9417 35.1588 21.7293 35.7338C22.5169 36.3089 22.8721 36.7161 22.8779 37.0839C22.8837 37.4516 22.5036 37.8691 21.6847 38.4398C20.1261 39.5408 18.4131 40.6616 16.5094 41.4325L16.4932 41.4467C16.162 41.5921 15.6744 41.7878 15.6395 42.3058C15.5863 42.8684 16.0431 43.1297 16.3659 43.3358L16.4389 43.3867C17.8357 44.2336 19.3221 44.6582 20.8698 44.6278C20.947 44.6179 21.0241 44.6079 21.0993 44.6284C21.3613 44.6007 21.5766 44.585 21.7816 44.7217C21.0887 45.2399 20.3166 45.569 19.4919 45.7719C15.9613 46.6136 12.9378 45.608 10.2691 42.7443C8.59698 40.7611 7.8557 37.9087 8.34104 35.2487C8.78153 32.7998 10.2494 30.7742 12.458 29.5653C13.5553 28.9527 13.9845 28.0335 13.6482 26.8929C12.7404 24.0137 13.6546 20.8936 15.9898 18.714C18.4368 16.4655 21.7703 15.8244 24.9642 17.0256C26.1581 17.4758 27.0012 17.2282 27.7107 16.2366C29.0099 14.4442 30.9849 13.2956 33.2863 12.9808C35.6182 12.6682 37.992 13.3227 39.7782 14.7476C41.055 15.7851 42.0696 17.0799 42.8078 18.6158Z" fill="#EEE7E7"/>
<path d="M43.3033 33.0679C38.1655 37.5479 33.0257 42.0583 27.888 46.5383C26.7336 47.5449 26.4148 47.5074 25.5037 46.2657C25.3495 46.056 25.2095 45.8627 25.0391 45.6672C23.5679 43.8815 23.5821 43.8978 25.0315 42.1464C28.6987 37.6868 32.3376 33.1947 35.9906 28.7188C36.1736 28.5019 36.3423 28.2687 36.5558 28.054C37.7712 26.8221 38.1672 26.8495 39.3199 28.1386C40.1601 29.0693 41.0674 29.9129 41.9726 30.7869C42.3782 31.5803 43.3122 32.0277 43.3033 33.0679Z" fill="white"/>
</g>
<defs>
<linearGradient id="paint0_linear_189_5217" x1="49.6679" y1="80.0138" x2="108.87" y2="35.5469" gradientUnits="userSpaceOnUse">
<stop stop-color="#589EFA"/>
<stop offset="1" stop-color="#36FFF3"/>
</linearGradient>
<clipPath id="clip0_189_5217">
<rect width="41.9569" height="31.5573" fill="white" transform="translate(0 32.0834) rotate(-41.0876)"/>
</clipPath>
</defs>
</svg>
