<svg width="32" height="32" viewBox="0 0 32 32" fill="none" xmlns="http://www.w3.org/2000/svg">
<path fill-rule="evenodd" clip-rule="evenodd" d="M32 14.1709C32 14.1709 32 14.1709 32 14.1709V14.1709C32 6.8968 24.8366 1 16 1C7.16344 1 0 6.8968 0 14.1709V14.1709C0 14.1709 2.04949e-05 14.1709 4.57765e-05 14.1709H32Z" fill="#FFA944"/>
<ellipse rx="0.371088" ry="0.771893" transform="matrix(0.479346 0.877626 -0.766699 0.642007 8.67201 4.9665)" fill="#F37500"/>
<ellipse rx="0.371088" ry="0.771893" transform="matrix(0.479346 0.877626 -0.766699 0.642007 12.3244 4.9665)" fill="#F37500"/>
<ellipse rx="0.371088" ry="0.771893" transform="matrix(-0.479346 0.877626 0.766699 0.642007 21.3729 6.14594)" fill="#F37500"/>
<ellipse rx="0.371088" ry="0.771893" transform="matrix(0.479346 0.877626 -0.766699 0.642007 15.9747 4.9665)" fill="#F37500"/>
<ellipse rx="0.371088" ry="0.771893" transform="matrix(-0.479346 0.877626 0.766699 0.642007 17.7206 6.14594)" fill="#F37500"/>
<ellipse rx="0.371088" ry="0.771893" transform="matrix(0.479346 0.877626 -0.766699 0.642007 19.6261 4.9665)" fill="#F37500"/>
<ellipse rx="0.371088" ry="0.771893" transform="matrix(-0.479346 0.877626 0.766699 0.642007 14.0692 6.14594)" fill="#F37500"/>
<ellipse rx="0.371088" ry="0.771893" transform="matrix(0.479346 0.877626 -0.766699 0.642007 23.2785 4.9665)" fill="#F37500"/>
<ellipse rx="0.371088" ry="0.771893" transform="matrix(-0.479346 0.877626 0.766699 0.642007 10.4188 6.14594)" fill="#F37500"/>
<rect x="31.875" y="18.1025" width="31.7528" height="2.9487" rx="1.47435" transform="rotate(-180 31.875 18.1025)" fill="#FFA944"/>
<rect x="30.6807" y="17.6002" width="29.8779" height="1.99201" rx="0.996003" transform="rotate(-180 30.6807 17.6002)" fill="url(#paint0_linear_25_993)"/>
<path d="M31.875 20.9464C31.875 21.5885 31.4454 22.1512 30.8233 22.31C29.8061 22.5696 28.3547 22.9187 27.9059 22.9187C27.1915 22.9187 24.5719 22.0341 23.9368 22.0341C23.3017 22.0341 20.6821 22.9187 19.9677 22.9187C19.2533 22.9187 16.7924 22.0341 15.9986 22.0341C15.2048 22.0341 12.8233 22.9187 12.0295 22.9187C11.2357 22.9187 8.9336 22.0341 8.0604 22.0341C7.1872 22.0341 5.04389 22.9187 4.0913 22.9187C3.501 22.9187 2.11813 22.579 1.15165 22.3206C0.539455 22.1569 0.122202 21.5987 0.122202 20.965V20.965C0.122202 20.0205 1.02327 19.3355 1.94071 19.5601C2.79774 19.7699 3.7138 19.97 4.0913 19.97C4.88512 19.97 6.94905 19.0854 8.0604 19.0854C9.17175 19.0854 11.3944 19.97 12.0295 19.97C12.6646 19.97 15.2842 19.0854 15.9986 19.0854C16.713 19.0854 19.1739 19.97 19.9677 19.97C20.7615 19.97 23.3017 19.0854 23.9368 19.0854C24.5719 19.0854 27.1915 19.97 27.9059 19.97C28.2519 19.97 29.1935 19.7626 30.0728 19.5486C30.9838 19.3269 31.875 20.0088 31.875 20.9464V20.9464Z" fill="#FFA944"/>
<rect x="31.875" y="30.8801" width="31.7528" height="6.8803" rx="3.44015" transform="rotate(-180 31.875 30.8801)" fill="#FFA944"/>
<path d="M4.87135 27.8087C5.12259 29.0932 4.14118 30.2906 2.83231 30.2906V30.2906C1.68678 30.2906 0.758149 29.362 0.758149 28.2165L0.758149 26.5036C0.758149 25.4466 1.61495 24.5898 2.67188 24.5898V24.5898C3.55419 24.5898 4.32292 25.1926 4.51219 26.0544C4.60156 26.4613 4.6971 26.9134 4.78317 27.3564C4.81202 27.5049 4.84159 27.6565 4.87135 27.8087Z" fill="url(#paint1_linear_25_993)"/>
<path d="M7.92418 4.09976C4.30487 4.19058 0.436864 11.4037 0.831589 12.8858C1.22631 14.368 6.98881 13.6763 6.98881 13.6763C6.43632 10.1191 11.5435 4.00894 7.92418 4.09976Z" fill="url(#paint2_linear_25_993)"/>
<ellipse rx="0.371088" ry="0.771893" transform="matrix(0.479346 0.877626 -0.766699 0.642007 8.67201 4.77009)" fill="#FFB877"/>
<ellipse rx="0.371088" ry="0.771893" transform="matrix(0.479346 0.877626 -0.766699 0.642007 12.3244 4.77009)" fill="#FFB877"/>
<ellipse rx="0.371088" ry="0.771893" transform="matrix(-0.479346 0.877626 0.766699 0.642007 21.3729 5.94966)" fill="#FFB877"/>
<ellipse rx="0.371088" ry="0.771893" transform="matrix(0.479346 0.877626 -0.766699 0.642007 15.9747 4.77009)" fill="#FFB877"/>
<ellipse rx="0.371088" ry="0.771893" transform="matrix(-0.479346 0.877626 0.766699 0.642007 17.7206 5.94966)" fill="#FFB877"/>
<ellipse rx="0.371088" ry="0.771893" transform="matrix(0.479346 0.877626 -0.766699 0.642007 19.6261 4.77009)" fill="#FFB877"/>
<ellipse rx="0.371088" ry="0.771893" transform="matrix(-0.479346 0.877626 0.766699 0.642007 14.0692 5.94966)" fill="#FFB877"/>
<ellipse rx="0.371088" ry="0.771893" transform="matrix(0.479346 0.877626 -0.766699 0.642007 23.2785 4.77009)" fill="#FFB877"/>
<ellipse rx="0.371088" ry="0.771893" transform="matrix(-0.479346 0.877626 0.766699 0.642007 10.4188 5.94966)" fill="#FFB877"/>
<defs>
<linearGradient id="paint0_linear_25_993" x1="60.5585" y1="18.5057" x2="52.2674" y2="18.5057" gradientUnits="userSpaceOnUse">
<stop stop-color="white" stop-opacity="0.33"/>
<stop offset="1" stop-color="#FFA944" stop-opacity="0"/>
</linearGradient>
<linearGradient id="paint1_linear_25_993" x1="-0.115052" y1="27.5385" x2="6.15612" y2="27.5385" gradientUnits="userSpaceOnUse">
<stop stop-color="white" stop-opacity="0.4"/>
<stop offset="1" stop-color="#F8F8F8" stop-opacity="0"/>
</linearGradient>
<linearGradient id="paint2_linear_25_993" x1="-0.115656" y1="9.6251" x2="7.93729" y2="9.49896" gradientUnits="userSpaceOnUse">
<stop stop-color="#F8F8F8" stop-opacity="0.4"/>
<stop offset="1" stop-color="white" stop-opacity="0"/>
</linearGradient>
</defs>
</svg>
