<svg width="378" height="67" viewBox="0 0 378 67" fill="none" xmlns="http://www.w3.org/2000/svg">
<path fill-rule="evenodd" clip-rule="evenodd" d="M369.471 67C374.994 67 379.587 62.3698 377.476 57.2665C364.075 24.8764 284.796 0 189 0C93.2037 0 13.925 24.8764 0.523913 57.2665C-1.58752 62.3698 3.00568 67 8.52853 67H369.471Z" fill="url(#paint0_linear_189_5036)"/>
<path d="M93 15.4999C97 10.9998 17 34.9999 7 60.4999H80.5C72 41.4999 89 19.9999 93 15.4999Z" fill="url(#paint1_linear_189_5036)"/>
<ellipse cx="134.848" cy="8.17762" rx="2" ry="4.5" transform="rotate(55.9303 134.848 8.17762)" fill="white"/>
<ellipse cx="157.848" cy="8.17762" rx="2" ry="4.5" transform="rotate(55.9303 157.848 8.17762)" fill="white"/>
<ellipse rx="2" ry="4.5" transform="matrix(-0.560202 0.828356 0.828356 0.560202 214.848 14.1776)" fill="white"/>
<ellipse cx="180.848" cy="8.17762" rx="2" ry="4.5" transform="rotate(55.9303 180.848 8.17762)" fill="white"/>
<ellipse rx="2" ry="4.5" transform="matrix(-0.560202 0.828356 0.828356 0.560202 191.848 14.1776)" fill="white"/>
<ellipse cx="203.848" cy="8.17762" rx="2" ry="4.5" transform="rotate(55.9303 203.848 8.17762)" fill="white"/>
<ellipse rx="2" ry="4.5" transform="matrix(-0.560202 0.828356 0.828356 0.560202 168.848 14.1776)" fill="white"/>
<ellipse cx="226.848" cy="8.17762" rx="2" ry="4.5" transform="rotate(55.9303 226.848 8.17762)" fill="white"/>
<ellipse rx="2" ry="4.5" transform="matrix(-0.560202 0.828356 0.828356 0.560202 145.848 14.1776)" fill="white"/>
<defs>
<linearGradient id="paint0_linear_189_5036" x1="196" y1="-23" x2="196" y2="67" gradientUnits="userSpaceOnUse">
<stop stop-color="#AC0E0E"/>
<stop offset="0.375" stop-color="#FF9140"/>
<stop offset="1" stop-color="#FFDCA7"/>
</linearGradient>
<linearGradient id="paint1_linear_189_5036" x1="93" y1="43.9999" x2="29" y2="43.9999" gradientUnits="userSpaceOnUse">
<stop stop-color="#F8F8F8" stop-opacity="0.4"/>
<stop offset="1" stop-color="white" stop-opacity="0"/>
</linearGradient>
</defs>
</svg>
