<svg width="1118" height="307" viewBox="0 0 1118 307" fill="none" xmlns="http://www.w3.org/2000/svg">
<path d="M312.389 169.221C312.389 168.999 312.356 168.801 312.291 168.625C312.226 168.443 312.105 168.273 311.93 168.117C311.754 167.961 311.5 167.805 311.168 167.648C310.842 167.486 310.413 167.316 309.879 167.141C309.254 166.932 308.652 166.698 308.072 166.438C307.493 166.171 306.975 165.861 306.52 165.51C306.064 165.152 305.702 164.735 305.436 164.26C305.169 163.778 305.035 163.218 305.035 162.58C305.035 161.968 305.172 161.418 305.445 160.93C305.719 160.435 306.1 160.015 306.588 159.67C307.083 159.318 307.662 159.051 308.326 158.869C308.99 158.68 309.716 158.586 310.504 158.586C311.546 158.586 312.464 158.768 313.258 159.133C314.059 159.491 314.684 160.002 315.133 160.666C315.589 161.324 315.816 162.102 315.816 163H312.408C312.408 162.642 312.333 162.326 312.184 162.053C312.04 161.779 311.822 161.564 311.529 161.408C311.236 161.252 310.868 161.174 310.426 161.174C309.996 161.174 309.635 161.239 309.342 161.369C309.049 161.499 308.827 161.675 308.678 161.896C308.528 162.111 308.453 162.349 308.453 162.609C308.453 162.824 308.512 163.02 308.629 163.195C308.753 163.365 308.925 163.524 309.146 163.674C309.374 163.824 309.648 163.967 309.967 164.104C310.292 164.24 310.657 164.374 311.061 164.504C311.816 164.745 312.486 165.015 313.072 165.314C313.665 165.607 314.163 165.943 314.566 166.32C314.977 166.691 315.286 167.115 315.494 167.59C315.709 168.065 315.816 168.602 315.816 169.201C315.816 169.839 315.693 170.406 315.445 170.9C315.198 171.395 314.843 171.815 314.381 172.16C313.919 172.499 313.365 172.756 312.721 172.932C312.076 173.107 311.357 173.195 310.562 173.195C309.833 173.195 309.114 173.104 308.404 172.922C307.701 172.733 307.063 172.447 306.49 172.062C305.917 171.672 305.458 171.174 305.113 170.568C304.775 169.956 304.605 169.23 304.605 168.391H308.043C308.043 168.807 308.098 169.159 308.209 169.445C308.32 169.732 308.482 169.963 308.697 170.139C308.912 170.308 309.176 170.432 309.488 170.51C309.801 170.581 310.159 170.617 310.562 170.617C310.999 170.617 311.35 170.555 311.617 170.432C311.884 170.301 312.079 170.132 312.203 169.924C312.327 169.709 312.389 169.475 312.389 169.221ZM320.748 164.465V177.062H317.457V162.434H320.523L320.748 164.465ZM327.232 167.59V167.795C327.232 168.563 327.145 169.276 326.969 169.934C326.793 170.591 326.533 171.164 326.188 171.652C325.842 172.141 325.413 172.521 324.898 172.795C324.391 173.062 323.801 173.195 323.131 173.195C322.499 173.195 321.956 173.055 321.5 172.775C321.044 172.495 320.663 172.108 320.357 171.613C320.051 171.118 319.804 170.552 319.615 169.914C319.426 169.276 319.277 168.602 319.166 167.893V167.629C319.277 166.867 319.426 166.161 319.615 165.51C319.804 164.852 320.051 164.279 320.357 163.791C320.663 163.303 321.041 162.922 321.49 162.648C321.946 162.375 322.49 162.238 323.121 162.238C323.792 162.238 324.381 162.365 324.889 162.619C325.403 162.873 325.833 163.238 326.178 163.713C326.529 164.182 326.793 164.745 326.969 165.402C327.145 166.06 327.232 166.789 327.232 167.59ZM323.941 167.795V167.59C323.941 167.18 323.912 166.805 323.854 166.467C323.795 166.122 323.701 165.822 323.57 165.568C323.447 165.314 323.281 165.119 323.072 164.982C322.864 164.846 322.607 164.777 322.301 164.777C321.949 164.777 321.653 164.833 321.412 164.943C321.178 165.048 320.989 165.21 320.846 165.432C320.709 165.646 320.611 165.917 320.553 166.242C320.501 166.561 320.478 166.936 320.484 167.365V168.166C320.471 168.661 320.52 169.097 320.631 169.475C320.742 169.846 320.934 170.135 321.207 170.344C321.48 170.552 321.852 170.656 322.32 170.656C322.633 170.656 322.893 170.585 323.102 170.441C323.31 170.292 323.476 170.087 323.6 169.826C323.723 169.559 323.811 169.253 323.863 168.908C323.915 168.563 323.941 168.192 323.941 167.795ZM332.018 165.051V173H328.727V162.434H331.803L332.018 165.051ZM335.143 162.355L335.084 165.412C334.954 165.399 334.778 165.383 334.557 165.363C334.335 165.344 334.15 165.334 334 165.334C333.616 165.334 333.284 165.38 333.004 165.471C332.73 165.555 332.503 165.686 332.32 165.861C332.145 166.031 332.014 166.245 331.93 166.506C331.852 166.766 331.816 167.069 331.822 167.414L331.227 167.023C331.227 166.314 331.295 165.669 331.432 165.09C331.575 164.504 331.777 163.999 332.037 163.576C332.298 163.146 332.613 162.818 332.984 162.59C333.355 162.355 333.772 162.238 334.234 162.238C334.397 162.238 334.557 162.248 334.713 162.268C334.876 162.287 335.019 162.316 335.143 162.355ZM339.752 162.434V173H336.451V162.434H339.752ZM336.256 159.709C336.256 159.24 336.425 158.856 336.764 158.557C337.102 158.257 337.542 158.107 338.082 158.107C338.622 158.107 339.062 158.257 339.4 158.557C339.739 158.856 339.908 159.24 339.908 159.709C339.908 160.178 339.739 160.562 339.4 160.861C339.062 161.161 338.622 161.311 338.082 161.311C337.542 161.311 337.102 161.161 336.764 160.861C336.425 160.562 336.256 160.178 336.256 159.709ZM345.016 164.689V173H341.725V162.434H344.811L345.016 164.689ZM344.625 167.355L343.854 167.375C343.854 166.568 343.951 165.848 344.146 165.217C344.342 164.579 344.618 164.038 344.977 163.596C345.335 163.153 345.761 162.818 346.256 162.59C346.757 162.355 347.314 162.238 347.926 162.238C348.414 162.238 348.86 162.31 349.264 162.453C349.674 162.596 350.025 162.827 350.318 163.146C350.618 163.465 350.846 163.889 351.002 164.416C351.165 164.937 351.246 165.581 351.246 166.35V173H347.936V166.34C347.936 165.917 347.877 165.594 347.76 165.373C347.643 165.145 347.473 164.989 347.252 164.904C347.031 164.82 346.76 164.777 346.441 164.777C346.103 164.777 345.816 164.842 345.582 164.973C345.348 165.103 345.159 165.285 345.016 165.52C344.879 165.747 344.778 166.018 344.713 166.33C344.654 166.643 344.625 166.984 344.625 167.355ZM358.639 162.434V164.719H352.271V162.434H358.639ZM353.609 159.807H356.9V169.553C356.9 169.833 356.933 170.051 356.998 170.207C357.063 170.357 357.174 170.464 357.33 170.529C357.493 170.588 357.708 170.617 357.975 170.617C358.163 170.617 358.32 170.614 358.443 170.607C358.567 170.594 358.684 170.578 358.795 170.559V172.912C358.515 173.003 358.222 173.072 357.916 173.117C357.61 173.169 357.285 173.195 356.939 173.195C356.236 173.195 355.634 173.085 355.133 172.863C354.638 172.642 354.26 172.294 354 171.818C353.74 171.343 353.609 170.725 353.609 169.963V159.807ZM296.188 190.492V190.219C296.188 188.871 296.324 187.644 296.598 186.537C296.878 185.424 297.252 184.447 297.721 183.607C298.189 182.768 298.71 182.071 299.283 181.518C299.863 180.958 300.455 180.557 301.061 180.316L301.676 181.938C301.311 182.204 300.956 182.569 300.611 183.031C300.273 183.487 299.967 184.05 299.693 184.721C299.42 185.391 299.202 186.179 299.039 187.084C298.883 187.989 298.805 189.027 298.805 190.199V190.512C298.805 191.684 298.883 192.722 299.039 193.627C299.202 194.532 299.42 195.32 299.693 195.99C299.967 196.661 300.273 197.224 300.611 197.68C300.956 198.142 301.311 198.507 301.676 198.773L301.061 200.395C300.455 200.147 299.863 199.747 299.283 199.193C298.71 198.64 298.189 197.943 297.721 197.104C297.252 196.264 296.878 195.29 296.598 194.184C296.324 193.07 296.188 191.84 296.188 190.492ZM312.877 193.461V196H302.955V193.852L307.525 189.047C307.929 188.585 308.255 188.171 308.502 187.807C308.749 187.436 308.928 187.1 309.039 186.801C309.156 186.501 309.215 186.231 309.215 185.99C309.215 185.58 309.153 185.238 309.029 184.965C308.912 184.685 308.736 184.473 308.502 184.33C308.274 184.187 307.991 184.115 307.652 184.115C307.314 184.115 307.018 184.213 306.764 184.408C306.51 184.604 306.311 184.87 306.168 185.209C306.031 185.548 305.963 185.928 305.963 186.352H302.662C302.662 185.479 302.874 184.682 303.297 183.959C303.727 183.236 304.322 182.66 305.084 182.23C305.846 181.794 306.728 181.576 307.73 181.576C308.779 181.576 309.658 181.739 310.367 182.064C311.077 182.39 311.611 182.862 311.969 183.48C312.333 184.092 312.516 184.831 312.516 185.697C312.516 186.192 312.438 186.667 312.281 187.123C312.125 187.579 311.9 188.031 311.607 188.48C311.314 188.923 310.956 189.379 310.533 189.848C310.117 190.316 309.641 190.814 309.107 191.342L307.271 193.461H312.877ZM317.818 192.855L319.771 185.434H321.832L321.1 189.154L319.166 196H317.516L317.818 192.855ZM317.047 185.434L318.258 192.797L318.395 196H316.393L313.893 185.434H317.047ZM323.57 192.641L324.791 185.434H327.945L325.465 196H323.463L323.57 192.641ZM322.066 185.434L324.039 192.836L324.342 196H322.672L320.777 189.174L320.074 185.434H322.066ZM334.254 196.195C333.395 196.195 332.626 196.062 331.949 195.795C331.272 195.521 330.699 195.147 330.23 194.672C329.768 194.197 329.413 193.65 329.166 193.031C328.925 192.413 328.805 191.758 328.805 191.068V190.697C328.805 189.923 328.912 189.206 329.127 188.549C329.342 187.885 329.661 187.305 330.084 186.811C330.507 186.316 331.038 185.932 331.676 185.658C332.314 185.378 333.056 185.238 333.902 185.238C334.651 185.238 335.322 185.359 335.914 185.6C336.507 185.84 337.008 186.186 337.418 186.635C337.835 187.084 338.15 187.628 338.365 188.266C338.587 188.904 338.697 189.62 338.697 190.414V191.752H330.064V189.691H335.484V189.438C335.491 189.086 335.429 188.786 335.299 188.539C335.175 188.292 334.993 188.103 334.752 187.973C334.511 187.842 334.218 187.777 333.873 187.777C333.515 187.777 333.219 187.855 332.984 188.012C332.757 188.168 332.577 188.383 332.447 188.656C332.324 188.923 332.236 189.232 332.184 189.584C332.132 189.936 332.105 190.307 332.105 190.697V191.068C332.105 191.459 332.158 191.814 332.262 192.133C332.372 192.452 332.529 192.725 332.73 192.953C332.939 193.174 333.186 193.347 333.473 193.471C333.766 193.594 334.098 193.656 334.469 193.656C334.918 193.656 335.361 193.572 335.797 193.402C336.233 193.233 336.607 192.953 336.92 192.562L338.414 194.34C338.199 194.646 337.893 194.942 337.496 195.229C337.105 195.515 336.637 195.749 336.09 195.932C335.543 196.107 334.931 196.195 334.254 196.195ZM345.152 196.195C344.293 196.195 343.525 196.062 342.848 195.795C342.171 195.521 341.598 195.147 341.129 194.672C340.667 194.197 340.312 193.65 340.064 193.031C339.824 192.413 339.703 191.758 339.703 191.068V190.697C339.703 189.923 339.811 189.206 340.025 188.549C340.24 187.885 340.559 187.305 340.982 186.811C341.406 186.316 341.936 185.932 342.574 185.658C343.212 185.378 343.954 185.238 344.801 185.238C345.549 185.238 346.22 185.359 346.812 185.6C347.405 185.84 347.906 186.186 348.316 186.635C348.733 187.084 349.049 187.628 349.264 188.266C349.485 188.904 349.596 189.62 349.596 190.414V191.752H340.963V189.691H346.383V189.438C346.389 189.086 346.327 188.786 346.197 188.539C346.074 188.292 345.891 188.103 345.65 187.973C345.41 187.842 345.117 187.777 344.771 187.777C344.413 187.777 344.117 187.855 343.883 188.012C343.655 188.168 343.476 188.383 343.346 188.656C343.222 188.923 343.134 189.232 343.082 189.584C343.03 189.936 343.004 190.307 343.004 190.697V191.068C343.004 191.459 343.056 191.814 343.16 192.133C343.271 192.452 343.427 192.725 343.629 192.953C343.837 193.174 344.085 193.347 344.371 193.471C344.664 193.594 344.996 193.656 345.367 193.656C345.816 193.656 346.259 193.572 346.695 193.402C347.132 193.233 347.506 192.953 347.818 192.562L349.312 194.34C349.098 194.646 348.792 194.942 348.395 195.229C348.004 195.515 347.535 195.749 346.988 195.932C346.441 196.107 345.829 196.195 345.152 196.195ZM354.254 180.99V196H350.963V180.99H354.254ZM361.012 185.434L356.422 190.814L354.02 193.217L352.584 191.127L354.586 188.52L357.066 185.434H361.012ZM357.486 196L354.664 191.186L357.096 189.457L361.256 196H357.486ZM367.057 190.219V190.492C367.057 191.775 366.91 192.966 366.617 194.066C366.331 195.167 365.943 196.146 365.455 197.006C364.967 197.865 364.42 198.581 363.814 199.154C363.215 199.734 362.6 200.147 361.969 200.395L361.334 198.773C361.699 198.507 362.05 198.142 362.389 197.68C362.734 197.224 363.043 196.661 363.316 195.99C363.59 195.32 363.805 194.532 363.961 193.627C364.124 192.722 364.205 191.684 364.205 190.512V190.199C364.205 189.027 364.124 187.989 363.961 187.084C363.805 186.179 363.59 185.391 363.316 184.721C363.043 184.05 362.734 183.487 362.389 183.031C362.05 182.569 361.699 182.204 361.334 181.938L361.969 180.316C362.6 180.557 363.215 180.967 363.814 181.547C364.42 182.126 364.967 182.846 365.455 183.705C365.943 184.564 366.331 185.544 366.617 186.645C366.91 187.745 367.057 188.936 367.057 190.219Z" fill="#2684FF"/>
<path d="M21.0312 202.176H17.4961V199.529H21.0312C21.513 199.529 21.9036 199.448 22.2031 199.285C22.5026 199.122 22.7207 198.898 22.8574 198.611C23.0007 198.318 23.0723 197.99 23.0723 197.625C23.0723 197.234 23.0007 196.873 22.8574 196.541C22.7207 196.209 22.5026 195.942 22.2031 195.74C21.9036 195.532 21.513 195.428 21.0312 195.428H18.7852V207H15.3574V192.781H21.0312C22.1706 192.781 23.1504 192.99 23.9707 193.406C24.7975 193.823 25.4323 194.396 25.875 195.125C26.3177 195.848 26.5391 196.674 26.5391 197.605C26.5391 198.523 26.3177 199.324 25.875 200.008C25.4323 200.691 24.7975 201.225 23.9707 201.609C23.1504 201.987 22.1706 202.176 21.0312 202.176ZM31.5488 199.051V207H28.2578V196.434H31.334L31.5488 199.051ZM34.6738 196.355L34.6152 199.412C34.485 199.399 34.3092 199.383 34.0879 199.363C33.8665 199.344 33.681 199.334 33.5312 199.334C33.1471 199.334 32.8151 199.38 32.5352 199.471C32.2617 199.555 32.0339 199.686 31.8516 199.861C31.6758 200.031 31.5456 200.245 31.4609 200.506C31.3828 200.766 31.347 201.069 31.3535 201.414L30.7578 201.023C30.7578 200.314 30.8262 199.669 30.9629 199.09C31.1061 198.504 31.3079 197.999 31.5684 197.576C31.8288 197.146 32.1445 196.818 32.5156 196.59C32.8867 196.355 33.3034 196.238 33.7656 196.238C33.9284 196.238 34.0879 196.248 34.2441 196.268C34.4069 196.287 34.5501 196.316 34.6738 196.355ZM35.0449 201.824V201.619C35.0449 200.844 35.1556 200.132 35.377 199.48C35.5983 198.823 35.9238 198.253 36.3535 197.771C36.7832 197.29 37.3138 196.915 37.9453 196.648C38.5768 196.375 39.306 196.238 40.1328 196.238C40.9661 196.238 41.6986 196.375 42.3301 196.648C42.9681 196.915 43.502 197.29 43.9316 197.771C44.3613 198.253 44.6868 198.823 44.9082 199.48C45.1296 200.132 45.2402 200.844 45.2402 201.619V201.824C45.2402 202.592 45.1296 203.305 44.9082 203.963C44.6868 204.614 44.3613 205.184 43.9316 205.672C43.502 206.154 42.9714 206.528 42.3398 206.795C41.7083 207.062 40.9792 207.195 40.1523 207.195C39.3255 207.195 38.5931 207.062 37.9551 206.795C37.3171 206.528 36.7832 206.154 36.3535 205.672C35.9238 205.184 35.5983 204.614 35.377 203.963C35.1556 203.305 35.0449 202.592 35.0449 201.824ZM38.3359 201.619V201.824C38.3359 202.221 38.3652 202.592 38.4238 202.938C38.4824 203.283 38.5801 203.585 38.7168 203.846C38.8535 204.1 39.0391 204.298 39.2734 204.441C39.5078 204.585 39.8008 204.656 40.1523 204.656C40.4974 204.656 40.7839 204.585 41.0117 204.441C41.2461 204.298 41.4316 204.1 41.5684 203.846C41.7051 203.585 41.8027 203.283 41.8613 202.938C41.9199 202.592 41.9492 202.221 41.9492 201.824V201.619C41.9492 201.235 41.9199 200.874 41.8613 200.535C41.8027 200.19 41.7051 199.887 41.5684 199.627C41.4316 199.36 41.2461 199.152 41.0117 199.002C40.7773 198.852 40.4844 198.777 40.1328 198.777C39.7878 198.777 39.498 198.852 39.2637 199.002C39.0358 199.152 38.8535 199.36 38.7168 199.627C38.5801 199.887 38.4824 200.19 38.4238 200.535C38.3652 200.874 38.3359 201.235 38.3359 201.619ZM52.7793 204.578V192H56.0898V207H53.1211L52.7793 204.578ZM46.2949 201.844V201.639C46.2949 200.838 46.3828 200.109 46.5586 199.451C46.7344 198.787 46.9948 198.217 47.3398 197.742C47.6849 197.26 48.1146 196.889 48.6289 196.629C49.1432 196.368 49.7357 196.238 50.4062 196.238C51.0052 196.238 51.5293 196.378 51.9785 196.658C52.4277 196.932 52.8118 197.316 53.1309 197.811C53.4499 198.305 53.7103 198.885 53.9121 199.549C54.1139 200.206 54.2669 200.916 54.3711 201.678V201.922C54.2669 202.638 54.1139 203.315 53.9121 203.953C53.7103 204.585 53.4499 205.145 53.1309 205.633C52.8118 206.121 52.4245 206.505 51.9688 206.785C51.5195 207.059 50.9922 207.195 50.3867 207.195C49.7161 207.195 49.1237 207.062 48.6094 206.795C48.1016 206.528 47.6751 206.154 47.3301 205.672C46.9915 205.19 46.7344 204.624 46.5586 203.973C46.3828 203.322 46.2949 202.612 46.2949 201.844ZM49.5859 201.639V201.844C49.5859 202.241 49.612 202.609 49.6641 202.947C49.7161 203.286 49.804 203.585 49.9277 203.846C50.0579 204.1 50.2272 204.298 50.4355 204.441C50.6504 204.585 50.9141 204.656 51.2266 204.656C51.6497 204.656 51.998 204.555 52.2715 204.354C52.5514 204.152 52.7565 203.865 52.8867 203.494C53.0234 203.123 53.082 202.687 53.0625 202.186V201.414C53.0755 200.984 53.0462 200.607 52.9746 200.281C52.903 199.949 52.7891 199.673 52.6328 199.451C52.4831 199.23 52.291 199.064 52.0566 198.953C51.8288 198.836 51.5586 198.777 51.2461 198.777C50.9401 198.777 50.6797 198.849 50.4648 198.992C50.2565 199.135 50.0872 199.337 49.957 199.598C49.8268 199.852 49.7324 200.154 49.6738 200.506C49.6152 200.851 49.5859 201.229 49.5859 201.639ZM64.127 204.432V196.434H67.4277V207H64.3418L64.127 204.432ZM64.4395 202.283L65.2988 202.264C65.2988 202.973 65.2142 203.631 65.0449 204.236C64.8757 204.835 64.625 205.356 64.293 205.799C63.9674 206.242 63.5638 206.587 63.082 206.834C62.6068 207.075 62.0566 207.195 61.4316 207.195C60.9108 207.195 60.4323 207.124 59.9961 206.98C59.5664 206.831 59.1953 206.6 58.8828 206.287C58.5703 205.968 58.3262 205.561 58.1504 205.066C57.9811 204.565 57.8965 203.966 57.8965 203.27V196.434H61.1875V203.289C61.1875 203.523 61.2168 203.725 61.2754 203.895C61.334 204.064 61.4186 204.207 61.5293 204.324C61.64 204.435 61.7767 204.52 61.9395 204.578C62.1087 204.63 62.3008 204.656 62.5156 204.656C63.0104 204.656 63.3978 204.552 63.6777 204.344C63.9577 204.135 64.153 203.852 64.2637 203.494C64.3809 203.136 64.4395 202.732 64.4395 202.283ZM73.707 204.656C74.013 204.656 74.2734 204.601 74.4883 204.49C74.7096 204.373 74.8757 204.21 74.9863 204.002C75.1035 203.787 75.1589 203.53 75.1523 203.23H78.248C78.2546 204.025 78.0592 204.721 77.6621 205.32C77.2715 205.913 76.7376 206.375 76.0605 206.707C75.39 207.033 74.6315 207.195 73.7852 207.195C72.9583 207.195 72.2357 207.062 71.6172 206.795C70.9987 206.521 70.4811 206.144 70.0645 205.662C69.6543 205.174 69.3451 204.604 69.1367 203.953C68.9349 203.302 68.834 202.596 68.834 201.834V201.609C68.834 200.848 68.9349 200.141 69.1367 199.49C69.3451 198.833 69.6543 198.263 70.0645 197.781C70.4811 197.293 70.9954 196.915 71.6074 196.648C72.2259 196.375 72.9453 196.238 73.7656 196.238C74.6445 196.238 75.4193 196.404 76.0898 196.736C76.7669 197.068 77.2975 197.55 77.6816 198.182C78.0658 198.813 78.2546 199.578 78.248 200.477H75.1523C75.1589 200.158 75.11 199.871 75.0059 199.617C74.9017 199.363 74.7389 199.161 74.5176 199.012C74.3027 198.855 74.026 198.777 73.6875 198.777C73.349 198.777 73.0755 198.852 72.8672 199.002C72.6589 199.152 72.4993 199.36 72.3887 199.627C72.2845 199.887 72.2129 200.187 72.1738 200.525C72.1413 200.864 72.125 201.225 72.125 201.609V201.834C72.125 202.225 72.1413 202.592 72.1738 202.938C72.2129 203.276 72.2878 203.576 72.3984 203.836C72.5091 204.09 72.6686 204.292 72.877 204.441C73.0853 204.585 73.362 204.656 73.707 204.656ZM85.2207 196.434V198.719H78.8535V196.434H85.2207ZM80.1914 193.807H83.4824V203.553C83.4824 203.833 83.515 204.051 83.5801 204.207C83.6452 204.357 83.7559 204.464 83.9121 204.529C84.0749 204.588 84.2897 204.617 84.5566 204.617C84.7454 204.617 84.9017 204.614 85.0254 204.607C85.1491 204.594 85.2663 204.578 85.377 204.559V206.912C85.097 207.003 84.804 207.072 84.498 207.117C84.1921 207.169 83.8665 207.195 83.5215 207.195C82.8184 207.195 82.2161 207.085 81.7148 206.863C81.2201 206.642 80.8424 206.294 80.582 205.818C80.3216 205.343 80.1914 204.725 80.1914 203.963V193.807ZM97.4668 200.955H93.8047L93.7852 198.709H96.7539C97.2878 198.709 97.7142 198.65 98.0332 198.533C98.3522 198.41 98.5833 198.23 98.7266 197.996C98.8763 197.762 98.9512 197.469 98.9512 197.117C98.9512 196.714 98.8763 196.388 98.7266 196.141C98.5768 195.893 98.3392 195.714 98.0137 195.604C97.6947 195.486 97.2812 195.428 96.7734 195.428H95.0938V207H91.666V192.781H96.7734C97.6523 192.781 98.4368 192.863 99.127 193.025C99.8171 193.182 100.403 193.423 100.885 193.748C101.373 194.074 101.744 194.484 101.998 194.979C102.252 195.467 102.379 196.043 102.379 196.707C102.379 197.286 102.255 197.83 102.008 198.338C101.76 198.846 101.347 199.259 100.768 199.578C100.195 199.891 99.4102 200.053 98.4141 200.066L97.4668 200.955ZM97.3301 207H92.9746L94.1465 204.363H97.3301C97.7988 204.363 98.1732 204.292 98.4531 204.148C98.7396 203.999 98.9447 203.803 99.0684 203.562C99.1986 203.315 99.2637 203.042 99.2637 202.742C99.2637 202.378 99.2018 202.062 99.0781 201.795C98.9609 201.528 98.7721 201.323 98.5117 201.18C98.2513 201.03 97.903 200.955 97.4668 200.955H94.5859L94.6055 198.709H98.0527L98.8535 199.607C99.804 199.568 100.556 199.702 101.109 200.008C101.669 200.314 102.07 200.717 102.311 201.219C102.551 201.72 102.672 202.244 102.672 202.791C102.672 203.722 102.47 204.5 102.066 205.125C101.669 205.75 101.074 206.219 100.279 206.531C99.485 206.844 98.502 207 97.3301 207ZM109.908 204.344V199.988C109.908 199.689 109.866 199.432 109.781 199.217C109.697 199.002 109.563 198.836 109.381 198.719C109.199 198.595 108.954 198.533 108.648 198.533C108.401 198.533 108.189 198.576 108.014 198.66C107.838 198.745 107.704 198.872 107.613 199.041C107.522 199.21 107.477 199.425 107.477 199.686H104.186C104.186 199.197 104.293 198.745 104.508 198.328C104.729 197.905 105.042 197.537 105.445 197.225C105.855 196.912 106.344 196.671 106.91 196.502C107.483 196.326 108.121 196.238 108.824 196.238C109.664 196.238 110.413 196.378 111.07 196.658C111.734 196.938 112.258 197.358 112.643 197.918C113.027 198.471 113.219 199.168 113.219 200.008V204.334C113.219 205.024 113.258 205.548 113.336 205.906C113.414 206.258 113.525 206.567 113.668 206.834V207H110.367C110.211 206.674 110.094 206.277 110.016 205.809C109.944 205.333 109.908 204.845 109.908 204.344ZM110.309 200.545L110.328 202.303H108.873C108.567 202.303 108.307 202.345 108.092 202.43C107.883 202.514 107.714 202.632 107.584 202.781C107.46 202.924 107.369 203.087 107.311 203.27C107.258 203.452 107.232 203.644 107.232 203.846C107.232 204.041 107.278 204.217 107.369 204.373C107.467 204.523 107.597 204.64 107.76 204.725C107.923 204.809 108.105 204.852 108.307 204.852C108.671 204.852 108.98 204.783 109.234 204.646C109.495 204.503 109.693 204.331 109.83 204.129C109.967 203.927 110.035 203.738 110.035 203.562L110.758 204.91C110.628 205.171 110.478 205.434 110.309 205.701C110.146 205.968 109.941 206.215 109.693 206.443C109.452 206.665 109.156 206.847 108.805 206.99C108.453 207.127 108.027 207.195 107.525 207.195C106.874 207.195 106.275 207.062 105.729 206.795C105.188 206.528 104.755 206.157 104.43 205.682C104.104 205.2 103.941 204.646 103.941 204.021C103.941 203.475 104.039 202.986 104.234 202.557C104.436 202.127 104.739 201.762 105.143 201.463C105.546 201.163 106.061 200.936 106.686 200.779C107.311 200.623 108.046 200.545 108.893 200.545H110.309ZM119.508 204.656C119.814 204.656 120.074 204.601 120.289 204.49C120.51 204.373 120.676 204.21 120.787 204.002C120.904 203.787 120.96 203.53 120.953 203.23H124.049C124.055 204.025 123.86 204.721 123.463 205.32C123.072 205.913 122.538 206.375 121.861 206.707C121.191 207.033 120.432 207.195 119.586 207.195C118.759 207.195 118.036 207.062 117.418 206.795C116.799 206.521 116.282 206.144 115.865 205.662C115.455 205.174 115.146 204.604 114.938 203.953C114.736 203.302 114.635 202.596 114.635 201.834V201.609C114.635 200.848 114.736 200.141 114.938 199.49C115.146 198.833 115.455 198.263 115.865 197.781C116.282 197.293 116.796 196.915 117.408 196.648C118.027 196.375 118.746 196.238 119.566 196.238C120.445 196.238 121.22 196.404 121.891 196.736C122.568 197.068 123.098 197.55 123.482 198.182C123.867 198.813 124.055 199.578 124.049 200.477H120.953C120.96 200.158 120.911 199.871 120.807 199.617C120.702 199.363 120.54 199.161 120.318 199.012C120.104 198.855 119.827 198.777 119.488 198.777C119.15 198.777 118.876 198.852 118.668 199.002C118.46 199.152 118.3 199.36 118.189 199.627C118.085 199.887 118.014 200.187 117.975 200.525C117.942 200.864 117.926 201.225 117.926 201.609V201.834C117.926 202.225 117.942 202.592 117.975 202.938C118.014 203.276 118.089 203.576 118.199 203.836C118.31 204.09 118.469 204.292 118.678 204.441C118.886 204.585 119.163 204.656 119.508 204.656ZM128.775 191.99V207H125.484V191.99H128.775ZM135.533 196.434L130.943 201.814L128.541 204.217L127.105 202.127L129.107 199.52L131.588 196.434H135.533ZM132.008 207L129.186 202.186L131.617 200.457L135.777 207H132.008ZM139.869 192V207H136.568V192H139.869ZM141.49 201.824V201.619C141.49 200.844 141.601 200.132 141.822 199.48C142.044 198.823 142.369 198.253 142.799 197.771C143.229 197.29 143.759 196.915 144.391 196.648C145.022 196.375 145.751 196.238 146.578 196.238C147.411 196.238 148.144 196.375 148.775 196.648C149.413 196.915 149.947 197.29 150.377 197.771C150.807 198.253 151.132 198.823 151.354 199.48C151.575 200.132 151.686 200.844 151.686 201.619V201.824C151.686 202.592 151.575 203.305 151.354 203.963C151.132 204.614 150.807 205.184 150.377 205.672C149.947 206.154 149.417 206.528 148.785 206.795C148.154 207.062 147.424 207.195 146.598 207.195C145.771 207.195 145.038 207.062 144.4 206.795C143.762 206.528 143.229 206.154 142.799 205.672C142.369 205.184 142.044 204.614 141.822 203.963C141.601 203.305 141.49 202.592 141.49 201.824ZM144.781 201.619V201.824C144.781 202.221 144.811 202.592 144.869 202.938C144.928 203.283 145.025 203.585 145.162 203.846C145.299 204.1 145.484 204.298 145.719 204.441C145.953 204.585 146.246 204.656 146.598 204.656C146.943 204.656 147.229 204.585 147.457 204.441C147.691 204.298 147.877 204.1 148.014 203.846C148.15 203.585 148.248 203.283 148.307 202.938C148.365 202.592 148.395 202.221 148.395 201.824V201.619C148.395 201.235 148.365 200.874 148.307 200.535C148.248 200.19 148.15 199.887 148.014 199.627C147.877 199.36 147.691 199.152 147.457 199.002C147.223 198.852 146.93 198.777 146.578 198.777C146.233 198.777 145.943 198.852 145.709 199.002C145.481 199.152 145.299 199.36 145.162 199.627C145.025 199.887 144.928 200.19 144.869 200.535C144.811 200.874 144.781 201.235 144.781 201.619ZM159.791 196.434H162.779V206.59C162.779 207.566 162.555 208.393 162.105 209.07C161.656 209.754 161.028 210.271 160.221 210.623C159.42 210.981 158.482 211.16 157.408 211.16C156.933 211.16 156.448 211.098 155.953 210.975C155.458 210.857 154.996 210.682 154.566 210.447C154.137 210.213 153.775 209.923 153.482 209.578L154.859 207.645C155.126 207.944 155.462 208.198 155.865 208.406C156.269 208.621 156.744 208.729 157.291 208.729C157.766 208.729 158.163 208.644 158.482 208.475C158.808 208.305 159.055 208.058 159.225 207.732C159.394 207.413 159.479 207.026 159.479 206.57V198.934L159.791 196.434ZM152.77 201.844V201.639C152.77 200.838 152.867 200.109 153.062 199.451C153.264 198.787 153.551 198.217 153.922 197.742C154.299 197.26 154.755 196.889 155.289 196.629C155.823 196.368 156.425 196.238 157.096 196.238C157.818 196.238 158.411 196.378 158.873 196.658C159.342 196.932 159.716 197.316 159.996 197.811C160.283 198.305 160.504 198.885 160.66 199.549C160.823 200.206 160.96 200.916 161.07 201.678V201.922C160.96 202.638 160.807 203.315 160.611 203.953C160.423 204.585 160.175 205.145 159.869 205.633C159.563 206.121 159.179 206.505 158.717 206.785C158.261 207.059 157.714 207.195 157.076 207.195C156.412 207.195 155.813 207.062 155.279 206.795C154.752 206.528 154.299 206.154 153.922 205.672C153.551 205.19 153.264 204.624 153.062 203.973C152.867 203.322 152.77 202.612 152.77 201.844ZM156.061 201.639V201.844C156.061 202.241 156.096 202.609 156.168 202.947C156.246 203.286 156.363 203.585 156.52 203.846C156.676 204.1 156.868 204.298 157.096 204.441C157.33 204.585 157.604 204.656 157.916 204.656C158.391 204.656 158.775 204.555 159.068 204.354C159.361 204.152 159.573 203.865 159.703 203.494C159.833 203.123 159.889 202.687 159.869 202.186V201.414C159.882 200.984 159.853 200.607 159.781 200.281C159.71 199.949 159.596 199.673 159.439 199.451C159.29 199.23 159.088 199.064 158.834 198.953C158.587 198.836 158.287 198.777 157.936 198.777C157.63 198.777 157.359 198.849 157.125 198.992C156.891 199.135 156.695 199.337 156.539 199.598C156.383 199.852 156.262 200.154 156.178 200.506C156.1 200.851 156.061 201.229 156.061 201.639Z" fill="#2684FF"/>
<path d="M937.965 192.781V207H934.537V192.781H937.965ZM943.492 198.699V201.336H936.988V198.699H943.492ZM944.049 192.781V195.428H936.988V192.781H944.049ZM948.795 196.434V207H945.494V196.434H948.795ZM945.299 193.709C945.299 193.24 945.468 192.856 945.807 192.557C946.145 192.257 946.585 192.107 947.125 192.107C947.665 192.107 948.105 192.257 948.443 192.557C948.782 192.856 948.951 193.24 948.951 193.709C948.951 194.178 948.782 194.562 948.443 194.861C948.105 195.161 947.665 195.311 947.125 195.311C946.585 195.311 946.145 195.161 945.807 194.861C945.468 194.562 945.299 194.178 945.299 193.709ZM954.059 198.689V207H950.768V196.434H953.854L954.059 198.689ZM953.668 201.355L952.896 201.375C952.896 200.568 952.994 199.848 953.189 199.217C953.385 198.579 953.661 198.038 954.02 197.596C954.378 197.153 954.804 196.818 955.299 196.59C955.8 196.355 956.357 196.238 956.969 196.238C957.457 196.238 957.903 196.31 958.307 196.453C958.717 196.596 959.068 196.827 959.361 197.146C959.661 197.465 959.889 197.889 960.045 198.416C960.208 198.937 960.289 199.581 960.289 200.35V207H956.979V200.34C956.979 199.917 956.92 199.594 956.803 199.373C956.686 199.145 956.516 198.989 956.295 198.904C956.074 198.82 955.803 198.777 955.484 198.777C955.146 198.777 954.859 198.842 954.625 198.973C954.391 199.103 954.202 199.285 954.059 199.52C953.922 199.747 953.821 200.018 953.756 200.33C953.697 200.643 953.668 200.984 953.668 201.355ZM965.592 196.434V207H962.291V196.434H965.592ZM962.096 193.709C962.096 193.24 962.265 192.856 962.604 192.557C962.942 192.257 963.382 192.107 963.922 192.107C964.462 192.107 964.902 192.257 965.24 192.557C965.579 192.856 965.748 193.24 965.748 193.709C965.748 194.178 965.579 194.562 965.24 194.861C964.902 195.161 964.462 195.311 963.922 195.311C963.382 195.311 962.942 195.161 962.604 194.861C962.265 194.562 962.096 194.178 962.096 193.709ZM973.16 204.031C973.16 203.849 973.098 203.693 972.975 203.562C972.857 203.426 972.649 203.302 972.35 203.191C972.05 203.074 971.63 202.957 971.09 202.84C970.576 202.729 970.09 202.583 969.635 202.4C969.186 202.218 968.792 201.997 968.453 201.736C968.115 201.476 967.848 201.167 967.652 200.809C967.464 200.451 967.369 200.04 967.369 199.578C967.369 199.129 967.464 198.706 967.652 198.309C967.848 197.905 968.131 197.55 968.502 197.244C968.88 196.932 969.339 196.688 969.879 196.512C970.419 196.329 971.035 196.238 971.725 196.238C972.675 196.238 973.495 196.385 974.186 196.678C974.876 196.964 975.406 197.368 975.777 197.889C976.155 198.403 976.344 198.999 976.344 199.676H973.053C973.053 199.409 973.007 199.181 972.916 198.992C972.831 198.803 972.691 198.66 972.496 198.562C972.301 198.458 972.04 198.406 971.715 198.406C971.487 198.406 971.279 198.449 971.09 198.533C970.908 198.618 970.761 198.735 970.65 198.885C970.54 199.035 970.484 199.21 970.484 199.412C970.484 199.555 970.517 199.686 970.582 199.803C970.654 199.913 970.761 200.018 970.904 200.115C971.048 200.206 971.23 200.291 971.451 200.369C971.673 200.441 971.939 200.506 972.252 200.564C972.962 200.695 973.626 200.88 974.244 201.121C974.863 201.362 975.364 201.704 975.748 202.146C976.139 202.589 976.334 203.185 976.334 203.934C976.334 204.402 976.227 204.835 976.012 205.232C975.797 205.623 975.488 205.968 975.084 206.268C974.68 206.561 974.195 206.788 973.629 206.951C973.062 207.114 972.424 207.195 971.715 207.195C970.706 207.195 969.853 207.016 969.156 206.658C968.46 206.294 967.932 205.838 967.574 205.291C967.223 204.738 967.047 204.178 967.047 203.611H970.113C970.126 203.937 970.204 204.204 970.348 204.412C970.497 204.62 970.696 204.773 970.943 204.871C971.191 204.969 971.477 205.018 971.803 205.018C972.102 205.018 972.35 204.975 972.545 204.891C972.747 204.806 972.9 204.692 973.004 204.549C973.108 204.399 973.16 204.227 973.16 204.031ZM981.1 192V207H977.809V192H981.1ZM980.709 201.355L979.938 201.375C979.938 200.633 980.029 199.949 980.211 199.324C980.393 198.699 980.654 198.156 980.992 197.693C981.331 197.231 981.738 196.873 982.213 196.619C982.688 196.365 983.215 196.238 983.795 196.238C984.316 196.238 984.791 196.313 985.221 196.463C985.657 196.613 986.031 196.854 986.344 197.186C986.663 197.518 986.907 197.951 987.076 198.484C987.252 199.018 987.34 199.669 987.34 200.438V207H984.029V200.418C984.029 199.988 983.967 199.656 983.844 199.422C983.727 199.181 983.557 199.015 983.336 198.924C983.115 198.826 982.844 198.777 982.525 198.777C982.141 198.777 981.829 198.842 981.588 198.973C981.347 199.103 981.161 199.285 981.031 199.52C980.908 199.747 980.823 200.018 980.777 200.33C980.732 200.643 980.709 200.984 980.709 201.355ZM999.977 202.176H996.441V199.529H999.977C1000.46 199.529 1000.85 199.448 1001.15 199.285C1001.45 199.122 1001.67 198.898 1001.8 198.611C1001.95 198.318 1002.02 197.99 1002.02 197.625C1002.02 197.234 1001.95 196.873 1001.8 196.541C1001.67 196.209 1001.45 195.942 1001.15 195.74C1000.85 195.532 1000.46 195.428 999.977 195.428H997.73V207H994.303V192.781H999.977C1001.12 192.781 1002.1 192.99 1002.92 193.406C1003.74 193.823 1004.38 194.396 1004.82 195.125C1005.26 195.848 1005.48 196.674 1005.48 197.605C1005.48 198.523 1005.26 199.324 1004.82 200.008C1004.38 200.691 1003.74 201.225 1002.92 201.609C1002.1 201.987 1001.12 202.176 999.977 202.176ZM1010.49 199.051V207H1007.2V196.434H1010.28L1010.49 199.051ZM1013.62 196.355L1013.56 199.412C1013.43 199.399 1013.25 199.383 1013.03 199.363C1012.81 199.344 1012.63 199.334 1012.48 199.334C1012.09 199.334 1011.76 199.38 1011.48 199.471C1011.21 199.555 1010.98 199.686 1010.8 199.861C1010.62 200.031 1010.49 200.245 1010.41 200.506C1010.33 200.766 1010.29 201.069 1010.3 201.414L1009.7 201.023C1009.7 200.314 1009.77 199.669 1009.91 199.09C1010.05 198.504 1010.25 197.999 1010.51 197.576C1010.77 197.146 1011.09 196.818 1011.46 196.59C1011.83 196.355 1012.25 196.238 1012.71 196.238C1012.87 196.238 1013.03 196.248 1013.19 196.268C1013.35 196.287 1013.5 196.316 1013.62 196.355ZM1013.99 201.824V201.619C1013.99 200.844 1014.1 200.132 1014.32 199.48C1014.54 198.823 1014.87 198.253 1015.3 197.771C1015.73 197.29 1016.26 196.915 1016.89 196.648C1017.52 196.375 1018.25 196.238 1019.08 196.238C1019.91 196.238 1020.64 196.375 1021.28 196.648C1021.91 196.915 1022.45 197.29 1022.88 197.771C1023.31 198.253 1023.63 198.823 1023.85 199.48C1024.07 200.132 1024.19 200.844 1024.19 201.619V201.824C1024.19 202.592 1024.07 203.305 1023.85 203.963C1023.63 204.614 1023.31 205.184 1022.88 205.672C1022.45 206.154 1021.92 206.528 1021.29 206.795C1020.65 207.062 1019.92 207.195 1019.1 207.195C1018.27 207.195 1017.54 207.062 1016.9 206.795C1016.26 206.528 1015.73 206.154 1015.3 205.672C1014.87 205.184 1014.54 204.614 1014.32 203.963C1014.1 203.305 1013.99 202.592 1013.99 201.824ZM1017.28 201.619V201.824C1017.28 202.221 1017.31 202.592 1017.37 202.938C1017.43 203.283 1017.53 203.585 1017.66 203.846C1017.8 204.1 1017.98 204.298 1018.22 204.441C1018.45 204.585 1018.75 204.656 1019.1 204.656C1019.44 204.656 1019.73 204.585 1019.96 204.441C1020.19 204.298 1020.38 204.1 1020.51 203.846C1020.65 203.585 1020.75 203.283 1020.81 202.938C1020.87 202.592 1020.89 202.221 1020.89 201.824V201.619C1020.89 201.235 1020.87 200.874 1020.81 200.535C1020.75 200.19 1020.65 199.887 1020.51 199.627C1020.38 199.36 1020.19 199.152 1019.96 199.002C1019.72 198.852 1019.43 198.777 1019.08 198.777C1018.73 198.777 1018.44 198.852 1018.21 199.002C1017.98 199.152 1017.8 199.36 1017.66 199.627C1017.53 199.887 1017.43 200.19 1017.37 200.535C1017.31 200.874 1017.28 201.235 1017.28 201.619ZM1031.72 204.578V192H1035.04V207H1032.07L1031.72 204.578ZM1025.24 201.844V201.639C1025.24 200.838 1025.33 200.109 1025.5 199.451C1025.68 198.787 1025.94 198.217 1026.29 197.742C1026.63 197.26 1027.06 196.889 1027.57 196.629C1028.09 196.368 1028.68 196.238 1029.35 196.238C1029.95 196.238 1030.47 196.378 1030.92 196.658C1031.37 196.932 1031.76 197.316 1032.08 197.811C1032.4 198.305 1032.66 198.885 1032.86 199.549C1033.06 200.206 1033.21 200.916 1033.32 201.678V201.922C1033.21 202.638 1033.06 203.315 1032.86 203.953C1032.66 204.585 1032.4 205.145 1032.08 205.633C1031.76 206.121 1031.37 206.505 1030.91 206.785C1030.46 207.059 1029.94 207.195 1029.33 207.195C1028.66 207.195 1028.07 207.062 1027.55 206.795C1027.05 206.528 1026.62 206.154 1026.28 205.672C1025.94 205.19 1025.68 204.624 1025.5 203.973C1025.33 203.322 1025.24 202.612 1025.24 201.844ZM1028.53 201.639V201.844C1028.53 202.241 1028.56 202.609 1028.61 202.947C1028.66 203.286 1028.75 203.585 1028.87 203.846C1029 204.1 1029.17 204.298 1029.38 204.441C1029.6 204.585 1029.86 204.656 1030.17 204.656C1030.6 204.656 1030.94 204.555 1031.22 204.354C1031.5 204.152 1031.7 203.865 1031.83 203.494C1031.97 203.123 1032.03 202.687 1032.01 202.186V201.414C1032.02 200.984 1031.99 200.607 1031.92 200.281C1031.85 199.949 1031.73 199.673 1031.58 199.451C1031.43 199.23 1031.24 199.064 1031 198.953C1030.77 198.836 1030.5 198.777 1030.19 198.777C1029.89 198.777 1029.62 198.849 1029.41 198.992C1029.2 199.135 1029.03 199.337 1028.9 199.598C1028.77 199.852 1028.68 200.154 1028.62 200.506C1028.56 200.851 1028.53 201.229 1028.53 201.639ZM1043.07 204.432V196.434H1046.37V207H1043.29L1043.07 204.432ZM1043.38 202.283L1044.24 202.264C1044.24 202.973 1044.16 203.631 1043.99 204.236C1043.82 204.835 1043.57 205.356 1043.24 205.799C1042.91 206.242 1042.51 206.587 1042.03 206.834C1041.55 207.075 1041 207.195 1040.38 207.195C1039.86 207.195 1039.38 207.124 1038.94 206.98C1038.51 206.831 1038.14 206.6 1037.83 206.287C1037.52 205.968 1037.27 205.561 1037.1 205.066C1036.93 204.565 1036.84 203.966 1036.84 203.27V196.434H1040.13V203.289C1040.13 203.523 1040.16 203.725 1040.22 203.895C1040.28 204.064 1040.36 204.207 1040.47 204.324C1040.59 204.435 1040.72 204.52 1040.88 204.578C1041.05 204.63 1041.25 204.656 1041.46 204.656C1041.96 204.656 1042.34 204.552 1042.62 204.344C1042.9 204.135 1043.1 203.852 1043.21 203.494C1043.33 203.136 1043.38 202.732 1043.38 202.283ZM1052.65 204.656C1052.96 204.656 1053.22 204.601 1053.43 204.49C1053.65 204.373 1053.82 204.21 1053.93 204.002C1054.05 203.787 1054.1 203.53 1054.1 203.23H1057.19C1057.2 204.025 1057 204.721 1056.61 205.32C1056.22 205.913 1055.68 206.375 1055.01 206.707C1054.34 207.033 1053.58 207.195 1052.73 207.195C1051.9 207.195 1051.18 207.062 1050.56 206.795C1049.94 206.521 1049.43 206.144 1049.01 205.662C1048.6 205.174 1048.29 204.604 1048.08 203.953C1047.88 203.302 1047.78 202.596 1047.78 201.834V201.609C1047.78 200.848 1047.88 200.141 1048.08 199.49C1048.29 198.833 1048.6 198.263 1049.01 197.781C1049.43 197.293 1049.94 196.915 1050.55 196.648C1051.17 196.375 1051.89 196.238 1052.71 196.238C1053.59 196.238 1054.36 196.404 1055.04 196.736C1055.71 197.068 1056.24 197.55 1056.63 198.182C1057.01 198.813 1057.2 199.578 1057.19 200.477H1054.1C1054.1 200.158 1054.06 199.871 1053.95 199.617C1053.85 199.363 1053.68 199.161 1053.46 199.012C1053.25 198.855 1052.97 198.777 1052.63 198.777C1052.29 198.777 1052.02 198.852 1051.81 199.002C1051.6 199.152 1051.44 199.36 1051.33 199.627C1051.23 199.887 1051.16 200.187 1051.12 200.525C1051.09 200.864 1051.07 201.225 1051.07 201.609V201.834C1051.07 202.225 1051.09 202.592 1051.12 202.938C1051.16 203.276 1051.23 203.576 1051.34 203.836C1051.45 204.09 1051.61 204.292 1051.82 204.441C1052.03 204.585 1052.31 204.656 1052.65 204.656ZM1064.17 196.434V198.719H1057.8V196.434H1064.17ZM1059.14 193.807H1062.43V203.553C1062.43 203.833 1062.46 204.051 1062.53 204.207C1062.59 204.357 1062.7 204.464 1062.86 204.529C1063.02 204.588 1063.24 204.617 1063.5 204.617C1063.69 204.617 1063.85 204.614 1063.97 204.607C1064.09 204.594 1064.21 204.578 1064.32 204.559V206.912C1064.04 207.003 1063.75 207.072 1063.44 207.117C1063.14 207.169 1062.81 207.195 1062.47 207.195C1061.76 207.195 1061.16 207.085 1060.66 206.863C1060.17 206.642 1059.79 206.294 1059.53 205.818C1059.27 205.343 1059.14 204.725 1059.14 203.963V193.807Z" fill="#FF7B7B"/>
<path d="M420.266 74.4609V77H410.344V74.8516L414.914 70.0469C415.318 69.5846 415.643 69.1712 415.891 68.8066C416.138 68.4355 416.317 68.1003 416.428 67.8008C416.545 67.5013 416.604 67.2311 416.604 66.9902C416.604 66.5801 416.542 66.2383 416.418 65.9648C416.301 65.6849 416.125 65.4733 415.891 65.3301C415.663 65.1868 415.38 65.1152 415.041 65.1152C414.702 65.1152 414.406 65.2129 414.152 65.4082C413.898 65.6035 413.7 65.8704 413.557 66.209C413.42 66.5475 413.352 66.9284 413.352 67.3516H410.051C410.051 66.4792 410.262 65.6816 410.686 64.959C411.115 64.2363 411.711 63.6602 412.473 63.2305C413.234 62.7943 414.117 62.5762 415.119 62.5762C416.167 62.5762 417.046 62.7389 417.756 63.0645C418.465 63.39 418.999 63.862 419.357 64.4805C419.722 65.0924 419.904 65.8314 419.904 66.6973C419.904 67.1921 419.826 67.6673 419.67 68.123C419.514 68.5788 419.289 69.0312 418.996 69.4805C418.703 69.9232 418.345 70.3789 417.922 70.8477C417.505 71.3164 417.03 71.8145 416.496 72.3418L414.66 74.4609H420.266ZM432.072 71.4434V73.9824H421.838L421.643 71.9707L427.355 62.7812H429.953L427.131 67.4004L424.787 71.4434H432.072ZM430.637 62.7812V77H427.346V62.7812H430.637ZM436.818 62V77H433.527V62H436.818ZM436.428 71.3555L435.656 71.375C435.656 70.6328 435.747 69.9492 435.93 69.3242C436.112 68.6992 436.372 68.1556 436.711 67.6934C437.049 67.2311 437.456 66.873 437.932 66.6191C438.407 66.3652 438.934 66.2383 439.514 66.2383C440.035 66.2383 440.51 66.3132 440.939 66.4629C441.376 66.6126 441.75 66.8535 442.062 67.1855C442.382 67.5176 442.626 67.9505 442.795 68.4844C442.971 69.0182 443.059 69.6693 443.059 70.4375V77H439.748V70.418C439.748 69.9883 439.686 69.6562 439.562 69.4219C439.445 69.181 439.276 69.015 439.055 68.9238C438.833 68.8262 438.563 68.7773 438.244 68.7773C437.86 68.7773 437.548 68.8424 437.307 68.9727C437.066 69.1029 436.88 69.2852 436.75 69.5195C436.626 69.7474 436.542 70.0176 436.496 70.3301C436.451 70.6426 436.428 70.9844 436.428 71.3555ZM448.205 69.0508V77H444.914V66.4336H447.99L448.205 69.0508ZM451.33 66.3555L451.271 69.4121C451.141 69.3991 450.965 69.3828 450.744 69.3633C450.523 69.3438 450.337 69.334 450.188 69.334C449.803 69.334 449.471 69.3796 449.191 69.4707C448.918 69.5553 448.69 69.6855 448.508 69.8613C448.332 70.0306 448.202 70.2454 448.117 70.5059C448.039 70.7663 448.003 71.069 448.01 71.4141L447.414 71.0234C447.414 70.3138 447.482 69.6693 447.619 69.0898C447.762 68.5039 447.964 67.9993 448.225 67.5762C448.485 67.1465 448.801 66.8177 449.172 66.5898C449.543 66.3555 449.96 66.2383 450.422 66.2383C450.585 66.2383 450.744 66.248 450.9 66.2676C451.063 66.2871 451.206 66.3164 451.33 66.3555Z" fill="#2684FF"/>
<path fill-rule="evenodd" clip-rule="evenodd" d="M803.586 262.125C804.763 260.953 804.763 259.047 803.586 257.874L760.422 214.876C758.53 212.991 755.305 214.331 755.305 217.001V240L101 240L101 280L755.305 280V302.998C755.305 305.668 758.53 307.008 760.422 305.124L803.586 262.125Z" fill="#FF7B7B"/>
<path fill-rule="evenodd" clip-rule="evenodd" d="M266.69 173.116C269.18 141.157 295.902 116 328.5 116C362.742 116 390.5 143.758 390.5 178C390.5 212.242 362.742 240 328.5 240H0V280H328.5C384.833 280 430.5 234.333 430.5 178C430.5 121.667 384.833 76 328.5 76C274.907 76 230.969 117.332 226.82 169.858L203.064 167.917C200.399 167.699 198.802 170.813 200.534 172.85L240.107 219.403C241.179 220.664 243.07 220.818 244.333 219.748L290.938 180.237C292.977 178.508 291.907 175.176 289.242 174.959L266.69 173.116Z" fill="#2684FF"/>
<path fill-rule="evenodd" clip-rule="evenodd" d="M386.845 45.5119C400.928 21.1189 432.119 12.7613 456.512 26.8446C480.51 40.6998 488.988 71.1132 475.846 95.3216L467.108 90.1616C464.806 88.802 462.009 90.9058 462.678 93.4946L469.585 120.251C469.998 121.854 471.632 122.819 473.235 122.407L500.001 115.536C502.591 114.871 503.083 111.406 500.78 110.047L493.075 105.496C511.872 71.6921 500.133 28.9353 466.512 9.52405C432.553 -10.0821 389.13 1.55308 369.524 35.5119C349.918 69.4706 361.553 112.894 395.512 132.5L405.512 115.179C381.119 101.096 372.761 69.9048 386.845 45.5119Z" fill="#2684FF"/>
<rect x="29" y="43" width="126" height="28" rx="3" fill="#81B7FF"/>
<rect x="14" y="77" width="126" height="28" rx="3" fill="#2684FF"/>
<rect x="29" y="111" width="126" height="28" rx="3" fill="#81B7FF"/>
<rect x="14" y="145" width="126" height="28" rx="3" fill="#2684FF"/>
<rect x="881" y="42" width="237" height="131" rx="3" fill="#FF7B7B"/>
<path d="M881 45C881 43.3431 882.343 42 884 42H1115C1116.66 42 1118 43.3431 1118 45V58H881V45Z" fill="#FFDBDB"/>
<rect x="892" y="70" width="215" height="44" rx="2" fill="#FFDBDB"/>
<rect x="892" y="123" width="90" height="39" rx="2" fill="#FFDBDB"/>
<rect x="995" y="123" width="112" height="6" rx="2" fill="#FFDBDB"/>
<rect x="995" y="135" width="75" height="6" rx="2" fill="#FFDBDB"/>
<rect x="995" y="147" width="63" height="15" rx="2" fill="#FFDBDB"/>
</svg>
