<svg width="56" height="51" viewBox="0 0 56 51" fill="none" xmlns="http://www.w3.org/2000/svg">
<path d="M47.2172 24.0586C42.0627 16.7257 29.7456 7.86337 9.56358 14.9793C4.22478 17.3265 -3.80647 22.3879 6.77895 23.8558C13.6905 24.8142 17.0616 27.4357 17.9667 29.9663C18.8718 32.4969 20.2489 35.845 21.8703 37.8667C26.3215 43.4169 35.7658 45.0094 42.9649 41.4235C50.164 37.8376 52.3916 30.4314 47.9405 24.8811C47.7122 24.5965 47.4708 24.3223 47.2172 24.0586Z" fill="#B14646"/>
<path d="M1.7855 16.9624L6.41161 17.4764V22.6165L1.7855 21.5885C1.7855 21.5885 1.27148 21.0745 1.27148 19.0184C1.27148 16.9624 1.7855 16.9624 1.7855 16.9624Z" fill="#B14646"/>
<path d="M50.1027 32.8967L45.4766 32.0556L45.4766 23.6445L50.1027 25.3267C50.1027 25.3267 50.6167 25.9342 50.6167 29.2987C50.6167 32.6631 50.1027 32.8967 50.1027 32.8967Z" fill="#B14646"/>
<path d="M47.2172 19.9465C42.0627 12.6137 29.7456 3.75134 9.56358 10.8672C4.22478 13.2144 -3.80647 18.2758 6.77895 19.7437C13.6905 20.7022 17.0616 23.3237 17.9667 25.8543C18.8718 28.3849 20.2489 31.7329 21.8703 33.7547C26.3215 39.3049 35.7658 40.8973 42.9649 37.3115C50.164 33.7256 52.3916 26.3193 47.9405 20.7691C47.7122 20.4845 47.4708 20.2102 47.2172 19.9465Z" fill="#FFECDB"/>
<path d="M8.91366 16.0168C9.16062 17.0243 14.1189 18.1346 16.1232 17.1363C20.6333 14.8898 16.9319 12.0229 14.6187 11.762C12.3055 11.501 8.60496 14.7574 8.91366 16.0168Z" fill="#F33838"/>
<path d="M19.9246 21.4724C20.3474 26.2457 21.3918 29.3677 24.5724 32.5754C27.753 35.7832 30.6555 29.5455 31.0203 26.9675C31.3122 24.9052 26.1687 20.918 23.5605 19.1822C22.1724 17.9567 19.5018 16.6992 19.9246 21.4724Z" fill="#F33838"/>
<path d="M21.4086 14.9825C21.4086 14.9825 22.9417 16.1359 24.9091 17.0727C26.8765 18.0095 32.4592 21.9378 33.6273 25.669C33.537 28.5892 29.7141 32.3144 35.9183 34.5913C42.1225 36.8683 45.0893 31.6207 45.7971 28.7123C45.2648 13.6424 25.2496 10.6733 22.0933 11.287C19.5683 11.7779 20.5848 13.9552 21.4086 14.9825Z" fill="#F33838"/>
</svg>
