<svg width="57" height="45" viewBox="0 0 57 45" fill="none" xmlns="http://www.w3.org/2000/svg">
<ellipse cx="19.4907" cy="36.8679" rx="1.58491" ry="1.0566" fill="#F07319"/>
<path d="M53.0354 2.26181L3.14844 5.55623C2.29943 5.6123 1.90387 6.63561 2.49444 7.24814L19.2833 24.6615C19.6114 25.0018 20.1329 25.0659 20.5336 24.8152L53.6317 4.10739C54.5128 3.55613 54.0725 2.19333 53.0354 2.26181Z" fill="#FFA31A"/>
<path fill-rule="evenodd" clip-rule="evenodd" d="M19.4404 23.1247C19.1437 23.3065 18.9629 23.6294 18.9629 23.9773V40.969C18.9629 41.7682 19.8541 42.2445 20.5186 41.8003L53.3865 19.8297C53.6641 19.6441 53.8308 19.3322 53.8308 18.9983V15.6057C53.2577 15.342 52.8109 14.9098 52.5994 14.3471C52.2069 13.3034 52.7436 12.1293 53.8308 11.425V3.83759C53.8308 3.05612 52.9747 2.57664 52.3083 2.98493L19.4404 23.1247Z" fill="#FBC254"/>
<path d="M37.9808 7.18678C39.7314 7.18678 41.1507 6.00403 41.1507 4.54527C41.1507 3.99297 40.9474 3.48041 40.5997 3.05658L35.1128 3.41876C34.9194 3.76055 34.811 4.14233 34.811 4.54527C34.811 6.00403 36.2303 7.18678 37.9808 7.18678Z" fill="#F07319"/>
<ellipse cx="9.45301" cy="12.5661" rx="3.16981" ry="2.11321" fill="#F07319"/>
<path fill-rule="evenodd" clip-rule="evenodd" d="M3.77678 6.82195L19.739 23.3896C19.9186 23.5759 20.0189 23.8246 20.0189 24.0834V41.2589C20.0189 42.1716 18.8966 42.6072 18.2808 41.9336L2.31853 24.4704C2.15006 24.2861 2.05664 24.0454 2.05664 23.7957V14.7893C2.39293 14.494 2.667 14.1415 2.86027 13.7362C3.48061 12.4352 3.11622 10.9101 2.05664 9.69202V7.51577C2.05664 6.61587 3.1524 6.17389 3.77678 6.82195Z" fill="#F07319"/>
<ellipse cx="35.7621" cy="22.9982" rx="3.16981" ry="2.64151" transform="rotate(137.129 35.7621 22.9982)" fill="#FFA31A"/>
<ellipse cx="48.3158" cy="21.8632" rx="2.41209" ry="2.01007" transform="rotate(137.129 48.3158 21.8632)" fill="#FFA31A"/>
<path d="M7.54759 30.1911L3.87012 26.1677C4.14975 25.7047 4.65689 25.2453 5.22337 25.2453C5.75168 25.2453 7.12815 26.0248 7.53934 27.3585C7.86179 28.4063 7.86488 29.4541 7.54759 30.1911Z" fill="#DB5C00"/>
<mask id="path-10-outside-1_214_1869" maskUnits="userSpaceOnUse" x="0.0561523" y="-0.740585" width="57" height="46" fill="black">
<rect fill="white" x="0.0561523" y="-0.740585" width="57" height="46"/>
<path fill-rule="evenodd" clip-rule="evenodd" d="M3.14787 5.55632L53.0348 2.2619C53.9825 2.19932 54.4318 3.33187 53.83 3.94824V11.4251C52.7428 12.1294 52.2061 13.3035 52.5986 14.3472C52.8101 14.9099 53.2569 15.3421 53.83 15.6058V18.9984C53.83 19.3323 53.6633 19.6442 53.3857 19.8298L20.5178 41.8004C20.2733 41.9638 19.9982 42.0027 19.748 41.9466C19.3768 42.3347 18.707 42.4004 18.2803 41.9337L2.31804 24.4705C2.14957 24.2862 2.05615 24.0455 2.05615 23.7958V14.7898C2.39266 14.4945 2.6669 14.1418 2.86027 13.7363C3.48071 12.4351 3.11611 10.9097 2.05615 9.69156V7.51588C2.05615 7.26956 2.13825 7.05755 2.2703 6.89281C2.05718 6.30439 2.44881 5.60249 3.14787 5.55632Z"/>
</mask>
<path d="M53.0348 2.2619L52.903 0.266251H52.903L53.0348 2.2619ZM3.14787 5.55632L3.01609 3.56067L3.14787 5.55632ZM53.83 3.94824L52.399 2.55098C52.0342 2.92459 51.83 3.42606 51.83 3.94824H53.83ZM53.83 11.4251L54.9173 13.1037C55.4864 12.7351 55.83 12.1032 55.83 11.4251H53.83ZM52.5986 14.3472L54.4706 13.6433V13.6433L52.5986 14.3472ZM53.83 15.6058H55.83C55.83 14.8249 55.3755 14.1154 54.666 13.7889L53.83 15.6058ZM53.3857 19.8298L54.4972 21.4925L54.4972 21.4925L53.3857 19.8298ZM20.5178 41.8004L21.6293 43.4631L21.6293 43.4631L20.5178 41.8004ZM19.748 41.9466L20.1849 39.995C19.5012 39.8419 18.7872 40.0578 18.3028 40.5641L19.748 41.9466ZM18.2803 41.9337L16.8041 43.283H16.8041L18.2803 41.9337ZM2.31804 24.4705L0.841807 25.8199L0.841811 25.8199L2.31804 24.4705ZM2.05615 14.7898L0.736961 13.2866C0.304243 13.6663 0.0561523 14.2141 0.0561523 14.7898H2.05615ZM2.86027 13.7363L4.66554 14.5971V14.5971L2.86027 13.7363ZM2.05615 9.69156H0.0561523C0.0561523 10.1741 0.230615 10.6404 0.547371 11.0044L2.05615 9.69156ZM2.2703 6.89281L3.83083 8.14371C4.26702 7.59954 4.38825 6.86746 4.15076 6.21173L2.2703 6.89281ZM52.903 0.266251L3.01609 3.56067L3.27966 7.55198L53.1666 4.25756L52.903 0.266251ZM55.261 5.34549C57.0615 3.50154 55.7988 0.0750229 52.903 0.266251L53.1666 4.25756C52.7127 4.28753 52.33 3.98932 52.1839 3.65825C52.0568 3.37039 52.0514 2.90695 52.399 2.55098L55.261 5.34549ZM55.83 11.4251V3.94824H51.83V11.4251H55.83ZM54.4706 13.6433C54.4705 13.643 54.4703 13.6447 54.4705 13.6397C54.4708 13.6322 54.4736 13.6027 54.4957 13.5515C54.5422 13.4437 54.6654 13.2669 54.9173 13.1037L52.7427 9.74652C51.137 10.7866 49.9018 12.8576 50.7265 15.0511L54.4706 13.6433ZM54.666 13.7889C54.5758 13.7474 54.5239 13.7056 54.4982 13.6797C54.4746 13.6559 54.4708 13.6439 54.4706 13.6433L50.7265 15.0511C51.1547 16.1899 52.0298 16.979 52.994 17.4227L54.666 13.7889ZM55.83 18.9984V15.6058H51.83V18.9984H55.83ZM54.4972 21.4925C55.33 20.9358 55.83 20.0002 55.83 18.9984H51.83C51.83 18.6645 51.9967 18.3526 52.2743 18.167L54.4972 21.4925ZM21.6293 43.4631L54.4972 21.4925L52.2743 18.167L19.4064 40.1377L21.6293 43.4631ZM19.3111 43.8983C20.0688 44.068 20.9079 43.9453 21.6293 43.4631L19.4064 40.1377C19.6388 39.9823 19.9276 39.9373 20.1849 39.995L19.3111 43.8983ZM16.8041 43.283C18.1049 44.7062 20.1209 44.45 21.1932 43.3292L18.3028 40.5641C18.4872 40.3714 18.7308 40.2676 18.9855 40.2613C19.27 40.2543 19.5615 40.3709 19.7565 40.5843L16.8041 43.283ZM0.841811 25.8199L16.8041 43.283L19.7565 40.5843L3.79427 23.1212L0.841811 25.8199ZM0.0561523 23.7958C0.0561523 24.545 0.336412 25.267 0.841807 25.8199L3.79427 23.1212C3.96273 23.3055 4.05615 23.5461 4.05615 23.7958H0.0561523ZM0.0561523 14.7898V23.7958H4.05615V14.7898H0.0561523ZM1.055 12.8755C0.985878 13.0204 0.883011 13.1584 0.736961 13.2866L3.37534 16.293C3.90232 15.8306 4.34793 15.2632 4.66554 14.5971L1.055 12.8755ZM0.547371 11.0044C1.24162 11.8023 1.2402 12.4871 1.055 12.8755L4.66554 14.5971C5.72121 12.3832 4.9906 10.0171 3.56493 8.37871L0.547371 11.0044ZM0.0561523 7.51588V9.69156H4.05615V7.51588H0.0561523ZM0.709765 5.64192C0.298665 6.15478 0.0561523 6.80619 0.0561523 7.51588H4.05615C4.05615 7.73294 3.97783 7.96032 3.83083 8.14371L0.709765 5.64192ZM3.01609 3.56067C0.89285 3.70088 -0.243531 5.82516 0.389839 7.57389L4.15076 6.21173C4.26615 6.53032 4.20957 6.84585 4.0648 7.07835C3.90584 7.33365 3.6147 7.52985 3.27966 7.55198L3.01609 3.56067Z" fill="white" mask="url(#path-10-outside-1_214_1869)"/>
</svg>
