<svg width="120" height="165" viewBox="0 0 120 165" fill="none" xmlns="http://www.w3.org/2000/svg">
<path fill-rule="evenodd" clip-rule="evenodd" d="M119.776 51.8219C120.175 40.5073 111.11 31.1181 99.7885 31.1181H20.0003C8.67865 31.1181 -0.385753 40.5073 0.0126481 51.8219L2.87256 133.043C3.25161 143.808 12.0884 152.34 22.8602 152.34H28.0744C38.8132 152.34 49.1581 164.718 59.8969 164.718C70.6357 164.718 80.9806 152.34 91.7194 152.34H96.9286C107.7 152.34 116.537 143.808 116.916 133.043L119.776 51.8219Z" fill="url(#paint0_linear_189_5218)"/>
<path d="M43.251 77.6431C44.4509 75.536 48.265 72.0298 53.9219 74.8617" stroke="white" stroke-width="4" stroke-linecap="round"/>
<path d="M63.4014 75.4932C65.3193 74.0756 70.1196 72.4423 73.9772 77.2507" stroke="white" stroke-width="4" stroke-linecap="round"/>
<circle cx="49.6518" cy="80.6312" r="2.56102" fill="white"/>
<circle cx="67.5791" cy="81.058" r="2.56102" fill="white"/>
<path d="M54.7739 93.8629C55.2365 94.7166 56.6789 96.4239 58.7479 96.4239C60.8169 96.4239 62.6518 94.7166 63.3106 93.8629" stroke="white" stroke-width="3" stroke-linecap="round"/>
<g clip-path="url(#clip0_189_5218)">
<path d="M89.1036 26.7435C87.3682 31.8061 82.5478 35.3225 78.2831 35.2306C79.0854 34.3849 79.858 33.5717 80.6617 32.7571C81.9399 31.423 82.8037 29.8579 83.3475 28.0888C83.5103 27.5518 83.7635 26.9485 83.369 26.4674C82.9097 25.9268 82.3027 26.2653 81.7833 26.4752C79.0593 27.4682 76.2244 28.061 73.3501 28.4686C70.3828 28.8803 69.86 28.3114 70.2853 25.2699C70.4731 23.8905 71.005 22.5582 70.7321 20.607C68.685 25.6523 65.558 28.7821 60.3462 29.075C54.9792 29.3747 51.9371 25.988 49.418 21.7679C49.6109 23.3175 49.986 24.7655 50.3907 26.181C51.169 29.0135 50.5489 29.7576 47.5864 29.577C44.686 29.3937 41.8126 29.1157 39.0088 28.3048C38.5053 28.1713 37.937 27.9783 37.5514 28.4005C37.0754 28.889 37.3822 29.4986 37.5608 30.0205C38.3372 32.1051 39.5358 33.8906 41.3372 35.2444C41.8193 35.597 42.4228 35.8819 42.491 36.7203C41.0605 36.7212 39.7093 36.407 38.4388 35.8088C33.4205 33.4444 30.9972 29.2824 30.5703 23.848C30.3566 16.9085 36.4826 9.15871 45.2264 10.6728C46.7935 10.9463 48.0144 10.4249 48.6002 8.90319C52.1328 0.177496 65.2507 -1.36873 70.7944 7.95268C71.7013 9.47065 72.7731 9.79718 74.2478 9.38917C80.9766 7.53347 88.0494 12.0507 89.5598 18.7771C90.1017 21.1837 90.0848 23.6151 89.5065 26.009C89.4782 26.0725 89.1036 26.7435 89.1036 26.7435Z" fill="white"/>
<path d="M89.8367 18.7025C89.0659 15.3399 86.8812 12.3516 83.8134 10.4929C80.8104 8.69373 77.3673 8.19163 74.1412 9.0822C72.6975 9.48884 71.8091 9.09187 71.0361 7.78611C68.4156 3.38359 63.8615 0.967445 58.84 1.34536C54.0359 1.71366 49.9936 4.54119 48.2845 8.79244C47.7525 10.1248 46.7489 10.6366 45.2439 10.3604C41.4834 9.71649 37.858 10.7182 35.0138 13.2123C31.9593 15.8715 30.1178 19.9416 30.2291 23.8631C30.2332 23.9564 30.2373 24.0497 30.2725 24.1416C30.1566 24.3337 30.1041 24.5541 30.0827 24.7732C29.0719 32.8576 34.8981 39.4243 41.2645 39.9218C44.0731 40.1403 44.0759 40.2025 44.17 43.0341C44.1906 43.5006 44.2113 43.9671 44.2009 44.435C44.2868 47.0799 44.6447 47.438 47.3747 47.2861C50.0117 47.1383 52.6135 46.8986 55.2504 46.7508C61.3327 46.4506 67.4473 46.1801 73.5392 46.0977C76.8335 46.0454 76.8901 45.9183 76.7739 42.5891C66.9656 43.023 57.1276 43.4893 47.3193 43.9231C45.1155 44.0206 44.79 43.6922 44.8786 41.4758C44.8931 41.1012 44.909 40.7577 44.8925 40.3845C44.8384 37.0526 44.8398 37.0837 48.0445 36.4122C56.1782 34.6814 64.3093 32.8883 72.4416 31.1263C72.8424 31.0463 73.2418 30.9351 73.6749 30.8848C76.1498 30.5884 76.5712 30.9748 76.7123 33.4615C76.8231 35.264 77.0878 37.0285 77.3227 38.8255C83.2416 38.3455 88.3525 33.6634 89.3382 27.8237C89.3865 27.51 89.4983 27.2246 89.3631 26.9812C89.3928 26.9488 89.3901 26.8866 89.4197 26.8541C89.7943 26.1831 89.8226 26.1196 89.8199 26.0574C90.3644 23.6027 90.3799 21.1402 89.8367 18.7025ZM89.1922 25.9293C89.1653 26.024 88.9618 26.3446 88.8176 26.6003L88.7893 26.6638C87.2451 31.1259 83.0765 34.6134 79.0159 34.9177L79.1939 34.7229C79.7588 34.137 80.2942 33.5835 80.8591 32.9976C82.1078 31.6959 83.0308 30.0659 83.6325 28.2007L83.6877 28.0425C83.8506 27.5055 84.07 26.8414 83.5783 26.2711C83.3162 25.9711 83.0003 25.8604 82.6899 25.8741C82.3795 25.8879 82.0733 25.9949 81.8601 26.0978C81.7994 26.1316 81.7374 26.1344 81.6767 26.1682C79.3197 27.0204 76.6427 27.6685 73.3042 28.1278C71.8819 28.3154 71.1018 28.2564 70.7763 27.928C70.4184 27.5699 70.3853 26.8235 70.5973 25.2872C70.6442 24.9423 70.7222 24.5961 70.7988 24.2188C71.0017 23.1815 71.2612 22.017 71.0414 20.5621L70.8974 19.4155L70.4475 20.4949C68.2603 25.8891 65.0492 28.5241 60.3327 28.7639C54.9346 29.065 52.0098 25.5173 49.6921 21.6311L48.9204 20.3564L49.1106 21.8438C49.3063 23.4555 49.7137 24.9333 50.0846 26.288C50.4556 27.6427 50.49 28.4202 50.1664 28.8396C49.8429 29.259 49.04 29.388 47.6053 29.2957C44.8615 29.1366 41.9259 28.8613 39.0898 28.0207L39.0588 28.0221C38.5553 27.8886 37.8303 27.6713 37.3261 28.2234C36.7611 28.8093 37.041 29.5136 37.2196 30.0355L37.2562 30.1585C38.0691 32.3662 39.3622 34.1787 41.1326 35.5338C41.2285 35.5919 41.3243 35.65 41.3905 35.7405C41.7105 35.9445 41.9671 36.1201 42.0754 36.4581C40.8297 36.4197 39.6647 36.0973 38.5536 35.5856C33.8215 33.3643 31.3189 29.5174 30.8836 23.8964C30.7806 20.1616 32.5062 16.2836 35.4407 13.7232C38.1352 11.3603 41.6068 10.3966 45.1797 11.0176C46.9654 11.3126 48.2739 10.6626 48.919 9.07599C50.4812 5.01821 54.3117 2.32469 58.8986 1.966C63.6731 1.63017 68.003 3.90042 70.5222 8.12046C71.4628 9.69926 72.6346 10.1772 74.3239 9.69736C77.3962 8.84475 80.6517 9.32398 83.5264 11.0354C86.4335 12.7765 88.5196 15.6446 89.2524 18.853C89.7591 21.1677 89.7395 23.5368 89.1922 25.9293Z" fill="#EEE7E7"/>
<path d="M76.7764 42.6515C66.9681 43.0853 57.1301 43.5516 47.3218 43.9854C45.118 44.0829 44.7925 43.7545 44.881 41.5381C44.8956 41.1635 44.9115 40.8201 44.895 40.4468C44.8409 37.1149 44.8423 37.146 48.0469 36.4746C56.1807 34.7437 64.3117 32.9506 72.4441 31.1886C72.8449 31.1086 73.2442 30.9974 73.6774 30.9471C76.1523 30.6507 76.5737 31.0371 76.7147 33.5238C76.8256 35.3263 77.0902 37.0908 77.3252 38.8878C77.0698 40.1455 77.7201 41.4879 76.7764 42.6515Z" fill="white"/>
</g>
<defs>
<linearGradient id="paint0_linear_189_5218" x1="112.618" y1="35.173" x2="13.6526" y2="147.332" gradientUnits="userSpaceOnUse">
<stop stop-color="#FBEA54"/>
<stop offset="1" stop-color="#F07319"/>
</linearGradient>
<clipPath id="clip0_189_5218">
<rect width="60.4299" height="45.4515" fill="white" transform="translate(28.8872 2.67029) rotate(-2.5326)"/>
</clipPath>
</defs>
</svg>
