<svg width="240" height="444" viewBox="0 0 240 444" fill="none" xmlns="http://www.w3.org/2000/svg">
<path fill-rule="evenodd" clip-rule="evenodd" d="M211.949 278.339C212.347 267.024 203.283 257.635 191.961 257.635H65.0642C53.7426 257.635 44.6782 267.024 45.0766 278.339L49.5953 406.669C49.9743 417.434 58.8111 425.965 69.5829 425.965H91.3263C102.372 425.965 111.564 437.371 121.704 441.751C123.793 442.654 126.095 443.153 128.515 443.153C130.934 443.153 133.237 442.654 135.325 441.751C145.465 437.371 154.658 425.965 165.703 425.965H187.442C198.214 425.965 207.051 417.434 207.43 406.669L211.949 278.339Z" fill="url(#paint0_linear_189_5214)"/>
<path d="M105.4 322.24C107.067 319.314 112.363 314.446 120.218 318.378" stroke="white" stroke-width="4" stroke-linecap="round"/>
<path d="M133.383 319.255C136.046 317.286 142.712 315.018 148.068 321.695" stroke="white" stroke-width="4" stroke-linecap="round"/>
<circle cx="114.291" cy="326.389" r="3.55627" fill="white"/>
<circle cx="139.183" cy="326.982" r="3.55627" fill="white"/>
<path d="M121.402 344.763C122.045 345.949 124.048 348.32 126.921 348.32C129.794 348.32 132.342 345.949 133.257 344.763" stroke="white" stroke-width="3" stroke-linecap="round"/>
<g clip-path="url(#clip0_189_5214)">
<path d="M169.072 251.56C166.663 258.59 159.969 263.473 154.047 263.346C155.161 262.171 156.234 261.042 157.35 259.911C159.125 258.058 160.324 255.885 161.079 253.428C161.306 252.683 161.657 251.845 161.109 251.177C160.472 250.426 159.629 250.896 158.907 251.188C155.125 252.567 151.188 253.39 147.197 253.956C143.077 254.527 142.351 253.737 142.941 249.514C143.202 247.598 143.941 245.748 143.562 243.039C140.719 250.045 136.377 254.391 129.14 254.798C121.687 255.214 117.463 250.511 113.964 244.651C114.232 246.803 114.753 248.813 115.315 250.779C116.396 254.712 115.535 255.746 111.421 255.495C107.394 255.24 103.403 254.854 99.5101 253.728C98.811 253.543 98.0218 253.275 97.4863 253.861C96.8253 254.539 97.2514 255.386 97.4994 256.111C98.5775 259.005 100.242 261.485 102.743 263.365C103.413 263.854 104.251 264.25 104.346 265.414C102.359 265.415 100.483 264.979 98.7187 264.148C91.7501 260.865 88.3851 255.086 87.7922 247.54C87.4956 237.903 96.0022 227.142 108.144 229.244C110.32 229.624 112.015 228.9 112.829 226.787C117.734 214.67 135.95 212.523 143.648 225.467C144.907 227.575 146.396 228.028 148.444 227.462C157.787 224.885 167.609 231.158 169.706 240.498C170.458 243.84 170.435 247.216 169.632 250.54C169.593 250.628 169.072 251.56 169.072 251.56Z" fill="white"/>
<path d="M170.09 240.394C169.02 235.725 165.986 231.575 161.726 228.994C157.556 226.496 152.775 225.799 148.295 227.035C146.291 227.6 145.057 227.049 143.984 225.236C140.345 219.122 134.021 215.767 127.048 216.292C120.377 216.803 114.764 220.73 112.39 226.633C111.652 228.483 110.258 229.194 108.168 228.81C102.946 227.916 97.9119 229.307 93.9625 232.771C89.7209 236.463 87.1638 242.115 87.3183 247.56C87.324 247.69 87.3298 247.819 87.3786 247.947C87.2177 248.214 87.1448 248.52 87.1151 248.824C85.7115 260.05 93.8018 269.169 102.642 269.86C106.542 270.163 106.546 270.25 106.677 274.181C106.706 274.829 106.734 275.477 106.72 276.127C106.839 279.8 107.336 280.297 111.127 280.086C114.789 279.881 118.402 279.548 122.063 279.343C130.509 278.926 139 278.55 147.459 278.436C152.034 278.363 152.112 278.187 151.951 273.564C138.331 274.166 124.67 274.814 111.05 275.416C107.99 275.551 107.538 275.095 107.661 272.018C107.681 271.498 107.703 271.021 107.68 270.502C107.605 265.876 107.607 265.919 112.057 264.986C123.352 262.583 134.643 260.093 145.935 257.646C146.492 257.535 147.046 257.381 147.648 257.311C151.085 256.899 151.67 257.436 151.866 260.889C152.019 263.392 152.387 265.842 152.713 268.337C160.932 267.671 168.029 261.169 169.398 253.06C169.465 252.624 169.62 252.228 169.433 251.89C169.474 251.845 169.47 251.759 169.511 251.714C170.032 250.782 170.071 250.694 170.067 250.607C170.823 247.199 170.845 243.779 170.09 240.394ZM169.195 250.43C169.158 250.561 168.875 251.006 168.675 251.361L168.636 251.45C166.492 257.646 160.703 262.489 155.064 262.911L155.312 262.64C156.096 261.827 156.839 261.058 157.624 260.245C159.358 258.437 160.64 256.174 161.475 253.584L161.552 253.364C161.778 252.618 162.083 251.696 161.4 250.904C161.036 250.488 160.597 250.334 160.166 250.353C159.735 250.372 159.31 250.521 159.014 250.664C158.93 250.711 158.843 250.714 158.759 250.761C155.486 251.945 151.769 252.845 147.133 253.482C145.158 253.743 144.075 253.661 143.623 253.205C143.126 252.708 143.08 251.671 143.374 249.538C143.439 249.059 143.548 248.578 143.654 248.054C143.936 246.614 144.296 244.997 143.991 242.977L143.791 241.384L143.166 242.883C140.129 250.374 135.67 254.033 129.121 254.366C121.625 254.784 117.563 249.857 114.345 244.461L113.273 242.691L113.537 244.756C113.809 246.994 114.375 249.046 114.89 250.928C115.405 252.809 115.453 253.888 115.004 254.471C114.554 255.053 113.439 255.232 111.447 255.104C107.637 254.883 103.561 254.501 99.6224 253.334L99.5793 253.336C98.8802 253.15 97.8736 252.849 97.1733 253.615C96.3888 254.429 96.7775 255.407 97.0255 256.131L97.0762 256.302C98.2051 259.368 100.001 261.885 102.459 263.767C102.592 263.847 102.725 263.928 102.817 264.054C103.262 264.337 103.618 264.581 103.768 265.05C102.038 264.997 100.421 264.549 98.8779 263.838C92.3068 260.754 88.8316 255.412 88.2273 247.607C88.0842 242.42 90.4804 237.035 94.5553 233.48C98.2969 230.199 103.118 228.861 108.079 229.723C110.559 230.133 112.376 229.23 113.271 227.027C115.441 221.392 120.76 217.652 127.129 217.154C133.759 216.687 139.772 219.84 143.27 225.7C144.576 227.892 146.203 228.556 148.549 227.89C152.815 226.706 157.336 227.371 161.328 229.748C165.365 232.165 168.261 236.148 169.279 240.603C169.983 243.817 169.955 247.107 169.195 250.43Z" fill="#EEE7E7"/>
<path d="M151.955 273.65C138.335 274.253 124.673 274.9 111.053 275.502C107.993 275.638 107.541 275.182 107.664 272.104C107.684 271.584 107.707 271.107 107.684 270.589C107.609 265.962 107.61 266.005 112.06 265.073C123.355 262.669 134.646 260.179 145.939 257.733C146.495 257.622 147.05 257.467 147.651 257.397C151.088 256.986 151.673 257.522 151.869 260.975C152.023 263.478 152.39 265.929 152.717 268.424C152.362 270.17 153.265 272.034 151.955 273.65Z" fill="white"/>
</g>
<path d="M240 122.536C240 156.274 179.961 143.851 162.756 156.99C148.267 168.054 71.3404 223.12 77.1753 178.941C83.0102 134.761 17.1582 147.265 17.1582 112.254C17.1582 88.5908 53.5695 78.2589 64.394 59.7394C81.9988 29.6197 59.2808 0 77.1753 0C96.1103 0 123.759 19.1135 141.638 59.7394C151.045 81.1138 240 101.11 240 122.536Z" fill="url(#paint1_linear_189_5214)"/>
<ellipse cx="108.129" cy="125.274" rx="2.97806" ry="3.79026" transform="rotate(24.4639 108.129 125.274)" fill="white"/>
<ellipse cx="121.174" cy="111.551" rx="3.80864" ry="5.1936" transform="rotate(-110.868 121.174 111.551)" fill="white"/>
<path d="M126.358 130.424L117.304 127.158L124.659 120.95L126.358 130.424Z" fill="white"/>
<g clip-path="url(#clip1_189_5214)">
<path d="M86.2244 38.1923C88.7215 45.1918 86.5302 53.1822 81.8197 56.7735C81.959 55.1608 82.0941 53.609 82.2618 52.0289C82.4952 49.4738 82.0786 47.0266 81.138 44.6349C80.8501 43.9109 80.603 43.0367 79.7582 42.8556C78.7915 42.6661 78.4253 43.559 78.043 44.2365C75.9444 47.6723 73.379 50.7697 70.6106 53.6999C67.7446 56.7151 66.6845 56.5497 64.514 52.8789C63.524 51.2184 62.9486 49.3113 60.9636 47.4287C63.1072 54.6791 62.4203 60.7842 57.0142 65.6129C51.4455 70.5834 45.211 69.5386 38.8231 67.1362C40.3737 68.6519 42.0342 69.8997 43.6988 71.0866C46.9954 73.4887 46.966 74.8335 43.5927 77.2014C40.2845 79.5125 36.9236 81.6975 33.1772 83.2436C32.5149 83.5344 31.7307 83.8167 31.6773 84.6089C31.5832 85.5513 32.4441 85.9477 33.0896 86.3598C35.7369 87.9516 38.5838 88.8532 41.7117 88.7641C42.5404 88.7298 43.4423 88.5169 44.2419 89.3683C42.6893 90.6074 40.9501 91.4356 39.0528 91.8856C31.5569 93.6613 25.3234 91.239 20.1564 85.7073C13.9184 78.3564 13.8634 64.639 24.6688 58.7157C26.6072 57.6564 27.4817 56.0334 26.8009 53.8741C23.0851 41.3413 35.9917 28.3091 50.0792 33.6333C52.3777 34.4968 53.8242 33.9238 55.0726 32.2044C60.7733 24.3657 72.3633 23.1496 79.8251 29.1467C82.4963 31.2911 84.5823 33.9459 86.0261 37.046C86.0505 37.1395 86.2244 38.1923 86.2244 38.1923Z" fill="white"/>
<path d="M80.0612 28.8261C76.3141 25.8418 71.3552 24.4875 66.4153 25.1243C61.5972 25.7695 57.4236 28.2043 54.6912 31.9634C53.4754 33.6545 52.1671 33.9923 50.1976 33.2434C43.5417 30.7306 36.5052 32.0484 31.3794 36.8047C26.4813 41.3625 24.5389 47.9315 26.3623 54.0271C26.9378 55.9343 26.2909 57.3587 24.4175 58.3613C19.7767 60.9167 16.7068 65.1422 15.7769 70.3121C14.7614 75.8434 16.2843 81.857 19.799 86.019C19.8843 86.1168 19.9695 86.2145 20.0872 86.2839C20.1276 86.5928 20.2615 86.8776 20.4278 87.134C26.327 96.7878 38.3371 98.8762 45.6809 93.9065C48.92 91.713 48.9768 91.7782 51.5297 94.7715C51.9558 95.2602 52.382 95.7489 52.7756 96.266C55.158 99.0639 55.8567 99.1429 58.6898 96.6152C61.4253 94.1725 64.0432 91.6604 66.7787 89.2177C73.1237 83.6277 79.5296 78.0419 86.0735 72.6799C89.6056 69.7721 89.557 69.585 86.5495 66.0704C76.274 75.0304 65.9945 84.0513 55.719 93.0113C53.4102 95.0244 52.7725 94.9496 50.9505 92.4661C50.6421 92.0468 50.3621 91.66 50.0211 91.269C47.0787 87.6977 47.1071 87.7302 50.006 84.2275C57.3405 75.3084 64.6182 66.324 71.9243 57.3723C72.2902 56.9385 72.6277 56.4722 73.0545 56.0426C75.4854 53.5788 76.2775 53.6337 78.5829 56.212C80.2632 58.0734 82.0777 59.7604 83.8881 61.5084C89.9001 55.8647 91.3978 46.3568 87.4141 39.1624C87.195 38.7799 87.0694 38.3732 86.7121 38.226C86.7162 38.165 86.6593 38.0999 86.6634 38.0389C86.4895 36.9861 86.4652 36.8926 86.4084 36.8274C84.8752 33.6906 82.7609 31.0032 80.0612 28.8261ZM85.616 37.2316C85.6687 37.3577 85.7252 37.882 85.7899 38.2844L85.8142 38.3779C87.9992 44.5599 86.4908 51.9548 82.3447 55.7996L82.3693 55.4339C82.4757 54.3087 82.5781 53.2445 82.6845 52.1192C82.9138 49.6251 82.5054 47.0561 81.5446 44.5099L81.4675 44.2903C81.1797 43.5663 80.8432 42.6552 79.8156 42.4615C79.2714 42.3625 78.8325 42.5157 78.5074 42.7992C78.1822 43.0828 77.9423 43.4641 77.7999 43.7603C77.7632 43.8496 77.6982 43.9063 77.6616 43.9956C75.8396 46.9608 73.4936 49.9816 70.2658 53.3697C68.8837 54.8043 67.9855 55.4154 67.3478 55.3405C66.6492 55.2614 65.9673 54.4795 64.8678 52.6278C64.6204 52.2127 64.4054 51.7692 64.162 51.2931C63.4846 49.9911 62.7586 48.502 61.2607 47.1124L60.1119 45.992L60.5576 47.5534C62.8511 55.304 61.6446 60.9445 56.7304 65.2869C51.1292 70.2857 44.8826 68.9646 39.0024 66.7505L37.0612 66.0342L38.555 67.4848C40.1624 69.0656 41.8838 70.3177 43.4591 71.4677C45.0343 72.6178 45.7446 73.4323 45.7563 74.1678C45.7679 74.9033 45.0077 75.7382 43.3698 76.8796C40.2526 79.0816 36.8266 81.3233 33.0193 82.8652L32.9868 82.8935C32.3245 83.1843 31.3493 83.5758 31.2795 84.6117C31.1731 85.7369 32.0866 86.2594 32.7322 86.6716L32.8784 86.7735C35.6718 88.4673 38.6447 89.3164 41.74 89.2557C41.8944 89.2358 42.0488 89.2159 42.199 89.2569C42.7231 89.2015 43.1537 89.1701 43.5638 89.4435C42.1778 90.4799 40.6338 91.138 38.9843 91.5439C31.9231 93.2273 25.8762 91.216 20.5387 85.4887C17.1945 81.5222 15.7119 75.8176 16.6826 70.4974C17.5635 65.5996 20.4993 61.5485 24.9166 59.1306C27.111 57.9054 27.9694 56.0671 27.2968 53.7859C25.4812 48.0275 27.3096 41.7874 31.9801 37.428C36.8742 32.9311 43.541 31.6489 49.9289 34.0512C52.3167 34.9516 54.0029 34.4564 55.422 32.4733C58.0203 28.8885 61.9703 26.5913 66.5731 25.9617C71.2368 25.3364 75.9844 26.6454 79.557 29.4952C82.1105 31.5702 84.1397 34.1599 85.616 37.2316Z" fill="#EEE7E7"/>
<path d="M86.6061 66.1357C76.3306 75.0957 66.051 84.1166 55.7755 93.0766C53.4667 95.0897 52.829 95.0149 51.007 92.5314C50.6986 92.1121 50.4186 91.7253 50.0776 91.3343C47.1352 87.763 47.1637 87.7956 50.0625 84.2928C57.397 75.3737 64.6747 66.3893 71.9808 57.4376C72.3467 57.0038 72.6842 56.5375 73.111 56.1079C75.5419 53.6441 76.334 53.6991 78.6394 56.2773C80.3197 58.1387 82.1342 59.8257 83.9447 61.5737C84.7559 63.1606 86.6238 64.0554 86.6061 66.1357Z" fill="white"/>
</g>
<defs>
<linearGradient id="paint0_linear_189_5214" x1="201.971" y1="263.266" x2="64.6035" y2="419.467" gradientUnits="userSpaceOnUse">
<stop stop-color="#FBEA54"/>
<stop offset="1" stop-color="#F07319"/>
</linearGradient>
<linearGradient id="paint1_linear_189_5214" x1="99.3338" y1="160.028" x2="217.738" y2="71.0938" gradientUnits="userSpaceOnUse">
<stop stop-color="#589EFA"/>
<stop offset="1" stop-color="#36FFF3"/>
</linearGradient>
<clipPath id="clip0_189_5214">
<rect width="83.9138" height="63.1146" fill="white" transform="translate(85.4551 218.132) rotate(-2.5326)"/>
</clipPath>
<clipPath id="clip1_189_5214">
<rect width="83.9138" height="63.1146" fill="white" transform="translate(0 64.1668) rotate(-41.0876)"/>
</clipPath>
</defs>
</svg>
