<svg width="120" height="152" viewBox="0 0 120 152" fill="none" xmlns="http://www.w3.org/2000/svg">
<circle cx="60.2491" cy="91.6183" r="59.751" fill="url(#paint0_linear_189_5215)"/>
<ellipse cx="47.7746" cy="54.264" rx="2.08295" ry="2.65103" transform="rotate(-21.8872 47.7746 54.264)" fill="white"/>
<ellipse cx="62.2907" cy="48.7725" rx="2.08295" ry="2.84039" transform="rotate(-17.8474 62.2907 48.7725)" fill="white"/>
<path fill-rule="evenodd" clip-rule="evenodd" d="M52.7909 62.7135C52.8005 62.732 52.8102 62.7505 52.82 62.769C53.919 64.8299 56.4807 65.6096 58.5416 64.5106C60.6025 63.4116 61.3822 60.85 60.2832 58.7891C60.2733 58.7706 60.2634 58.7522 60.2533 58.734L52.7909 62.7135Z" fill="white"/>
<g clip-path="url(#clip0_189_5215)">
<path d="M52.4791 19.8394C52.8611 24.1565 50.4515 28.3448 47.2656 29.6803C47.581 28.7906 47.885 27.9346 48.2116 27.0673C48.7184 25.6595 48.8425 24.2171 48.6626 22.7291C48.6064 22.2782 48.5952 21.7485 48.145 21.5223C47.6272 21.2735 47.2895 21.7237 46.9742 22.05C45.2855 23.6812 43.3829 25.0528 41.3902 26.3003C39.33 27.5814 38.756 27.3325 38.0697 24.942C37.7547 23.8595 37.7099 22.6986 36.8659 21.3448C37.0115 25.7516 35.7277 29.0966 31.9676 31.0285C28.095 33.0165 24.7295 31.5116 21.4767 29.2181C22.1294 30.3012 22.8835 31.2492 23.6488 32.1634C25.1569 34.0031 24.9429 34.7578 22.6914 35.5991C20.4849 36.418 18.2673 37.1579 15.9258 37.4806C15.5093 37.5475 15.0253 37.5917 14.8789 38.031C14.6874 38.5491 15.1151 38.8992 15.419 39.2266C16.6795 40.5136 18.154 41.4403 19.9325 41.8492C20.4052 41.9514 20.9456 41.9637 21.2719 42.5615C20.2137 43.033 19.1105 43.2452 17.9736 43.2207C13.4822 43.1227 10.3195 40.8405 8.2151 36.9599C5.77324 31.8954 7.75568 24.145 14.7238 22.3878C15.9734 22.0745 16.7052 21.2868 16.6379 19.9681C16.3802 12.3491 25.5778 6.88793 32.7475 11.9608C33.918 12.7856 34.8186 12.6744 35.7755 11.8872C40.1437 8.29971 46.8637 9.31454 50.195 13.7946C51.3879 15.3971 52.1756 17.2017 52.5355 19.1633C52.5355 19.2197 52.4791 19.8394 52.4791 19.8394Z" fill="white"/>
<path d="M50.3749 13.6483C48.6981 11.4139 46.098 9.92167 43.2164 9.55597C40.4023 9.21293 37.6893 9.97453 35.5953 11.6952C34.6608 12.4712 33.8729 12.4698 32.8712 11.758C29.4833 9.36282 25.3184 9.07376 21.7272 11.0059C18.2936 12.8595 16.2331 16.282 16.3675 19.9901C16.4124 21.151 15.8382 21.86 14.6337 22.1509C11.6393 22.912 9.28631 24.8463 8.00259 27.6278C6.61753 30.6007 6.59443 34.2183 7.96727 37.0834C8.00103 37.151 8.03479 37.2187 8.09106 37.2752C8.06852 37.4554 8.10226 37.6358 8.15851 37.805C10.0711 44.1196 16.5432 47.0612 21.4176 45.3341C23.5678 44.5715 23.5903 44.6167 24.5918 46.6809C24.7606 47.0192 24.9294 47.3577 25.0756 47.7073C26.0096 49.6361 26.3923 49.7833 28.3624 48.7724C30.265 47.7953 32.1112 46.7617 34.0137 45.7845C38.4155 43.5607 42.851 41.3483 47.3314 39.2825C49.7518 38.1597 49.7518 38.047 48.5703 35.6219C41.4555 39.1707 34.3294 42.7534 27.2146 46.3023C25.6161 47.0996 25.2671 46.9638 24.6033 45.2946C24.4907 45.0127 24.3895 44.7533 24.2544 44.4826C23.1179 42.035 23.1292 42.0575 25.2794 40.506C30.7283 36.5485 36.1547 32.5459 41.5923 28.5658C41.8625 28.3747 42.1214 28.161 42.4254 27.9812C44.1591 26.9474 44.5981 27.0947 45.5208 28.8883C46.196 30.1855 46.9725 31.404 47.7378 32.6564C51.9594 30.3534 54.2003 25.2069 53.0079 20.5615C52.9404 20.3135 52.9292 20.0655 52.7491 19.9299C52.7603 19.8961 52.7378 19.851 52.7491 19.8172C52.8055 19.1975 52.8055 19.1411 52.783 19.096C52.3781 17.1005 51.5791 15.2733 50.3749 13.6483ZM52.2764 19.2078C52.2877 19.2867 52.2426 19.5909 52.22 19.8276L52.22 19.8839C52.5458 23.6938 50.609 27.6462 47.7046 29.2077L47.7721 29.0049C47.9974 28.3855 48.2113 27.7998 48.4366 27.1803C48.9321 25.8062 49.0787 24.2963 48.9101 22.7182L48.8989 22.5829C48.8426 22.132 48.7865 21.5684 48.2349 21.3082C47.9423 21.1725 47.6721 21.1945 47.447 21.3069C47.2218 21.4192 47.0304 21.5991 46.9066 21.7454C46.8728 21.7905 46.8278 21.8129 46.794 21.8579C45.3304 23.2641 43.5629 24.6247 41.2438 26.0632C40.2531 26.6701 39.6564 26.8832 39.3075 26.7473C38.9248 26.6001 38.6547 26.0587 38.306 24.8522C38.2272 24.5815 38.171 24.2997 38.1035 23.9953C37.9123 23.161 37.7211 22.2139 37.0796 21.2098L36.5957 20.4087L36.618 21.3555C36.7749 26.0667 35.266 29.0731 31.8549 30.8027C27.9598 32.802 24.6281 31.1394 21.6342 29.0267L20.6437 28.3374L21.2739 29.3754C21.9491 30.5036 22.7369 31.4629 23.4572 32.3433C24.1775 33.2236 24.4588 33.7876 24.3574 34.2044C24.2561 34.6212 23.7044 34.9809 22.6125 35.3847C20.5298 36.17 18.2671 36.9324 15.8919 37.2438L15.8694 37.255C15.4529 37.3219 14.845 37.3997 14.6536 37.9742C14.4283 38.5936 14.8673 39.0226 15.1712 39.35L15.2387 39.429C16.5667 40.795 18.12 41.7106 19.876 42.1307C19.966 42.1421 20.0561 42.1536 20.1349 42.1988C20.4388 42.2444 20.6864 42.2899 20.8778 42.5044C19.9434 42.8859 18.9753 43.0307 17.9847 43.0177C13.7522 42.9314 10.6345 40.9086 8.46259 36.8926C7.15727 34.163 7.15783 30.7256 8.48659 27.8653C9.70274 25.2302 11.9544 23.3746 14.8024 22.6583C16.2208 22.2889 16.9752 21.3773 16.9304 19.991C16.7508 16.4745 18.6988 13.2208 21.9748 11.4459C25.3971 9.62613 29.3481 9.88101 32.6009 12.1745C33.8165 13.0332 34.8409 13.0012 35.9329 12.0902C37.9256 10.4483 40.4922 9.73151 43.1825 10.0518C45.9066 10.3834 48.3941 11.8191 49.9922 13.9519C51.1288 15.4979 51.894 17.2574 52.2764 19.2078Z" fill="#EEE7E7"/>
<path d="M48.5929 35.6671C41.4781 39.216 34.3521 42.7986 27.2373 46.3475C25.6387 47.1449 25.2898 47.009 24.6259 45.3399C24.5134 45.0579 24.4121 44.7985 24.2771 44.5278C23.1406 42.0802 23.1518 42.1028 25.3021 40.5513C30.751 36.5937 36.1773 32.5911 41.6149 28.611C41.8851 28.4199 42.1441 28.2062 42.448 28.0264C44.1817 26.9926 44.6207 27.1399 45.5435 28.9335C46.2187 30.2307 46.9952 31.4493 47.7604 32.7016C47.9854 33.7163 48.9083 34.4956 48.5929 35.6671Z" fill="white"/>
</g>
<defs>
<linearGradient id="paint0_linear_189_5215" x1="71.8877" y1="81.5376" x2="31.0151" y2="132.858" gradientUnits="userSpaceOnUse">
<stop stop-color="#2684FF"/>
<stop offset="1" stop-color="#0756BD"/>
</linearGradient>
<clipPath id="clip0_189_5215">
<rect width="48.9375" height="36.8077" fill="white" transform="translate(0 21.8436) rotate(-26.5101)"/>
</clipPath>
</defs>
</svg>
