<svg width="57" height="54" viewBox="0 0 57 54" fill="none" xmlns="http://www.w3.org/2000/svg">
<path d="M49.6667 25C49.6667 37.6523 38.8239 48 25.3333 48C11.8428 48 1 37.6523 1 25C1 12.3477 11.8428 2 25.3333 2C38.8239 2 49.6667 12.3477 49.6667 25Z" fill="#BBEB7B" stroke="white" stroke-width="2" stroke-linejoin="round"/>
<path d="M28.0759 52.9257C35.6579 53.3524 39.8702 52.0722 48.2947 45.6712C60.9313 32.8693 54.6133 20.9204 52.9284 16.2264C51.2435 11.5323 49.5586 11.959 48.2947 9.39862C47.0309 6.83822 47.0313 8.54533 45.7676 7.26495C44.5039 5.98457 44.9251 5.55801 42.819 3.85108C40.7129 2.14414 40.7129 4.7046 40.2916 3.42434C39.8704 2.14408 39.0279 1.29073 37.7643 1.29073C36.5006 1.29073 36.5006 3.42434 32.2883 1.29073C29.3397 0.010464 31.4459 3.42443 28.9185 2.571C26.3911 1.71756 25.9699 1.71746 23.8638 1.29073C21.7576 0.863996 22.1789 4.7046 19.2303 4.7046C16.2817 4.7046 17.9666 2.99773 15.8605 2.571C13.7543 2.14426 15.8605 8.54533 13.3331 6.83839C10.8058 5.13145 11.6482 6.83839 12.0694 8.54533C12.4907 10.2523 11.6482 11.9592 9.12084 11.1057C6.59348 10.2522 6.59348 10.679 7.01451 12.8126C7.43555 14.9463 7.01451 16.2265 5.75103 17.9334C4.48755 19.6404 5.75103 19.2136 4.06593 20.0671C2.38082 20.9206 2.80237 21.3473 1.53869 23.0543C0.275007 24.7612 5.32973 27.3216 3.64482 29.4553C1.95991 31.5889 1.95991 32.4424 3.64482 34.5761C4.99275 36.283 4.48719 36.9942 4.06593 37.1365C3.6447 38.2744 3.13923 40.7211 4.48715 41.4038C6.17206 42.2573 7.01451 43.1108 7.01451 43.9642C7.01451 44.8177 7.85697 46.5246 10.8056 47.8048C13.7541 49.085 11.648 49.5118 13.7541 49.9385C15.8603 50.3652 20.4938 52.4989 28.0759 52.9257Z" fill="#73D236" stroke="white" stroke-width="2" stroke-linejoin="round"/>
<path d="M39.0833 48.8333C41.2409 49.0815 44.4197 47.6635 48.4178 44.3396C53.145 39.5021 52.5291 35.8953 51.9167 33.6665C51.4682 35.1285 50.4611 37.134 49.5833 38.9165C49.8959 34.4455 47.3711 28.6591 46.6524 26.8667C46.8404 29.1306 47.9306 34.757 47.2502 38.9165C46.9683 35.5207 33.8333 21.9999 30.6616 23.7499C32.6667 25.5 41.2383 33.7274 43.9952 41.192C41.8376 40.9437 33.6719 37.9112 32.6667 38.9165C31.5 40.0832 39.8914 43.2424 42.1196 44.3396C40.1666 45.5276 35.673 46.6777 32.6663 46.4999C33.5078 48.5533 37.3571 48.6347 39.0833 48.8333Z" fill="#BBEB7B"/>
<path d="M5.33301 23.8103C6.6293 23.5272 9.76634 23.4706 11.9441 25.5091C13.3574 26.8321 14.0828 27.3919 14.418 27.5832C14.5041 27.6009 14.587 27.6174 14.6663 27.6327C14.6663 27.6824 14.5992 27.6867 14.418 27.5832C12.1098 27.1092 7.4324 25.7755 5.33301 23.8103Z" fill="#66B01F"/>
<path d="M20.1425 23.6861C19.1319 22.3119 14.1066 19.9642 11.7203 18.9622C17.1948 17.6738 24.7748 21.1094 23.5114 21.1094C22.2481 21.1094 15.5103 19.8211 18.8792 21.1094C21.5743 22.1401 22.8096 24.9745 23.0903 26.2628C22.5288 25.9765 21.1532 25.0603 20.1425 23.6861Z" fill="#66B01F"/>
<path d="M14.6681 9.08491C15.6507 10.8027 18.7108 14.2383 23.0903 14.2383C27.4699 14.2383 19.3003 10.8027 14.6681 9.08491Z" fill="#66B01F"/>
<path d="M42.4614 10.8027C41.7877 9.08491 38.5311 7.22396 36.987 6.50821C37.6888 6.22191 39.6821 6.07876 42.0403 7.79656C44.3985 9.51436 44.1459 12.5205 43.7248 13.8089C43.5844 13.5226 43.1352 12.5205 42.4614 10.8027Z" fill="#66B01F"/>
<path d="M30.2492 13.3793C29.2385 12.3486 24.2133 10.0869 21.827 9.08491L28.5648 10.8027L26.0381 6.93758C26.1785 6.79446 26.9645 6.85176 28.9859 8.22593C31.0072 9.60011 32.9163 14.5245 33.6181 16.8149L30.2492 13.3793Z" fill="#66B01F"/>
<path d="M12.1414 31.8457C13.9663 32.7046 18.4581 34.0788 21.827 32.7046C26.0381 30.9868 14.247 30.9868 12.1414 31.8457Z" fill="#66B01F"/>
<path d="M17.6159 47.3058C15.2577 46.2752 13.2644 44.2997 12.5625 43.4408L17.6159 46.0175C19.0255 46.7363 22.4997 46.252 23.3488 46.0749C23.4191 46.0382 23.4737 46.0175 23.5114 46.0175C23.5801 46.0175 23.5143 46.0404 23.3488 46.0749C22.6343 46.4481 20.2996 48.4788 17.6159 47.3058Z" fill="#66B01F"/>
<path d="M12.1414 36.9991L6.66699 34.4224C9.3621 34.0788 15.6507 36.2833 18.4581 37.4285C18.4581 37.7148 18.037 38.2874 16.3525 38.2874C14.247 38.2874 7.50921 39.5758 7.50921 39.1463C7.50921 38.8027 10.5974 37.5717 12.1414 36.9991Z" fill="#66B01F"/>
</svg>
