<svg width="120" height="164" viewBox="0 0 120 164" fill="none" xmlns="http://www.w3.org/2000/svg">
<path d="M119.999 106.723C119.999 148.698 94.4772 163.96 64.8267 163.96C35.1762 163.96 9.6543 148.698 9.6543 106.723C9.6543 64.7477 45.3099 11.954 64.8267 11.954C84.3435 11.954 119.999 64.7477 119.999 106.723Z" fill="url(#paint0_linear_189_5216)"/>
<ellipse cx="63.4071" cy="72.4646" rx="2.70617" ry="3.44421" transform="rotate(-12.3815 63.4071 72.4646)" fill="white"/>
<ellipse cx="83.1875" cy="68.5429" rx="2.70617" ry="3.69023" transform="rotate(-8.34167 83.1875 68.5429)" fill="white"/>
<path fill-rule="evenodd" clip-rule="evenodd" d="M68.0245 84.3668C68.0329 84.393 68.0414 84.4191 68.0502 84.4453C69.0163 87.3218 72.1313 88.8706 75.0079 87.9045C77.8844 86.9385 79.4332 83.8234 78.4671 80.9469C78.4583 80.9207 78.4494 80.8947 78.4403 80.8688L68.0245 84.3668Z" fill="white"/>
<rect x="71.0781" y="83.3599" width="4.09983" height="3.68985" transform="rotate(-19.9414 71.0781 83.3599)" fill="#D9D9D9"/>
<g clip-path="url(#clip0_189_5216)">
<path d="M44.8589 14.4384C46.5623 18.0597 45.8046 22.4565 43.4671 24.627C43.4577 23.7554 43.4492 22.9166 43.4567 22.061C43.4486 20.6794 43.0977 19.3895 42.4688 18.1567C42.2767 17.7836 42.0987 17.328 41.6365 17.275C41.1085 17.2238 40.9588 17.7215 40.7892 18.1045C39.8436 20.0555 38.6301 21.8493 37.2991 23.5642C35.9203 25.3297 35.3435 25.2964 33.9887 23.4421C33.3716 22.6038 32.9637 21.6116 31.8017 20.7061C33.3286 24.4803 33.2788 27.7883 30.6331 30.6582C27.9077 33.6126 24.5117 33.3777 20.9627 32.4233C21.8728 33.1548 22.8279 33.737 23.7819 34.2863C25.6741 35.4018 25.7285 36.1242 24.044 37.5692C22.3914 38.9804 20.704 40.3267 18.7767 41.3507C18.4368 41.5411 18.0313 41.7333 18.044 42.1607C18.0427 42.6707 18.5247 42.8383 18.8922 43.0255C20.3941 43.7406 21.967 44.0754 23.6388 43.8645C24.0811 43.8029 24.5534 43.6418 25.0264 44.0564C24.2588 44.8015 23.3699 45.3361 22.3765 45.6762C18.4515 47.0188 14.9842 46.0456 11.9264 43.3502C8.1997 39.7357 7.45491 32.3864 12.9374 28.6482C13.9211 27.9794 14.3051 27.064 13.8276 25.9421C11.1825 19.4187 17.4205 11.7608 25.2486 13.8798C26.5255 14.2228 27.2709 13.8402 27.8503 12.8535C30.497 8.35497 36.6454 7.0988 40.9574 9.92393C42.501 10.934 43.7574 12.2481 44.6929 13.8343C44.7108 13.8832 44.8589 14.4384 44.8589 14.4384Z" fill="white"/>
<path d="M41.0672 9.73989C38.9033 8.33577 36.1749 7.86853 33.5604 8.46742C31.0117 9.06449 28.9018 10.5871 27.6333 12.7444C27.0699 13.7141 26.3863 13.9634 25.2916 13.6647C21.5933 12.665 17.8906 13.7383 15.3914 16.5548C13.0039 19.2531 12.3053 22.8751 13.6005 26.0471C14.0084 27.0393 13.736 27.8364 12.7842 28.4715C10.4301 30.0831 9.00509 32.5079 8.77628 35.3273C8.52044 38.3449 9.65029 41.4885 11.7511 43.536C11.8019 43.5839 11.8527 43.6319 11.9194 43.6629C11.9572 43.8264 12.0437 43.972 12.1463 44.1008C15.8115 48.9673 22.3574 49.4603 26.0343 46.4137C27.6559 45.0692 27.6898 45.1011 29.2141 46.5723C29.468 46.8121 29.7219 47.0518 29.9599 47.3084C31.3827 48.6837 31.7612 48.6897 33.1479 47.1871C34.4867 45.7353 35.7587 44.2523 37.0975 42.8005C40.2067 39.4735 43.3488 36.1457 46.5765 32.9306C48.318 31.1879 48.2821 31.0902 46.487 29.3633C41.4469 34.7014 36.4078 40.0724 31.3677 45.4104C30.2353 46.6098 29.8896 46.603 28.7835 45.3669C28.5963 45.1583 28.4261 44.9656 28.223 44.7738C26.4597 43.0131 26.4766 43.0291 27.8476 41.0006C31.3136 35.8377 34.7457 30.6429 38.1947 25.464C38.3682 25.2125 38.5248 24.9449 38.7312 24.6924C39.9056 23.2451 40.333 23.2333 41.703 24.4949C42.7007 25.4049 43.7612 26.2145 44.8227 27.057C47.7506 23.7186 48.0575 18.5446 45.5472 14.8964C45.4098 14.7028 45.3213 14.4913 45.1221 14.4311C45.1211 14.3982 45.0872 14.3662 45.0863 14.3334C44.9382 13.7781 44.9203 13.7293 44.8864 13.6973C43.9011 12.096 42.6277 10.7659 41.0672 9.73989ZM44.4828 13.9553C44.5176 14.0201 44.5752 14.2982 44.6309 14.5105L44.6488 14.5593C46.1422 17.7587 45.7194 21.8008 43.6977 24.0777L43.6918 23.8805C43.6902 23.2718 43.6896 22.6961 43.6879 22.0874C43.6808 20.7387 43.3279 19.3831 42.6801 18.0685L42.6274 17.9548C42.4354 17.5818 42.2075 17.1111 41.6467 17.0608C41.3498 17.0361 41.1226 17.1411 40.9631 17.3101C40.8036 17.479 40.6949 17.6959 40.634 17.862C40.619 17.9118 40.5871 17.9456 40.5722 17.9954C39.7503 19.6797 38.6504 21.421 37.0971 23.4052C36.4311 24.2462 35.9816 24.6206 35.6359 24.6137C35.2574 24.6078 34.8511 24.2242 34.1653 23.2891C34.011 23.0795 33.8727 22.853 33.7174 22.6106C33.2864 21.9481 32.8196 21.1878 31.9444 20.5212L31.2702 19.9805L31.5905 20.7942C33.2239 24.8286 32.8714 27.9147 30.464 30.4984C27.7226 33.4696 24.3058 33.0873 21.0387 32.2073L19.9609 31.9246L20.8372 32.6241C21.7812 33.3876 22.7691 33.9689 23.6733 34.5031C24.5776 35.0374 25.0007 35.4369 25.0453 35.8305C25.0899 36.2241 24.726 36.7112 23.9077 37.4084C22.3518 38.7511 20.6325 40.1313 18.6723 41.1562L18.6564 41.1731C18.3165 41.3635 17.8143 41.6241 17.8309 42.183C17.8325 42.7916 18.3494 43.0241 18.7169 43.2113L18.8006 43.2583C20.3861 44.0204 22.0237 44.3205 23.6796 44.1266C23.7613 44.1078 23.843 44.0891 23.9256 44.1033C24.2036 44.0462 24.4328 44.007 24.6668 44.1321C23.9781 44.7599 23.1848 45.1931 22.3219 45.4967C18.6251 46.7672 15.2793 46.0045 12.1199 43.2132C10.1206 41.2616 9.02856 38.2814 9.27137 35.3794C9.48814 32.7084 10.8504 30.384 13.0918 28.8578C14.204 28.0867 14.5683 27.0566 14.0888 25.869C12.8154 22.8774 13.47 19.4375 15.7459 16.8575C18.1344 14.1921 21.6408 13.1572 25.1898 14.1117C26.5165 14.4697 27.3944 14.1164 28.0516 12.9795C29.2573 10.9227 31.2546 9.48547 33.6887 8.90803C36.1557 8.32968 38.7685 8.78367 40.8319 10.1248C42.3087 11.1038 43.5313 12.3859 44.4828 13.9553Z" fill="#EEE7E7"/>
<path d="M46.5209 29.3953C41.4808 34.7334 36.4417 40.1044 31.4016 45.4425C30.2691 46.6419 29.9235 46.635 28.8174 45.399C28.6302 45.1903 28.46 44.9976 28.2569 44.8058C26.4936 43.0451 26.5105 43.0611 27.8815 41.0326C31.3475 35.8697 34.7796 30.6749 38.2286 25.4961C38.4021 25.2445 38.5587 24.977 38.765 24.7245C39.9395 23.2772 40.3668 23.2653 41.7369 24.527C42.7346 25.437 43.7951 26.2466 44.8566 27.089C45.3741 27.8972 46.4219 28.2794 46.5209 29.3953Z" fill="white"/>
</g>
<defs>
<linearGradient id="paint0_linear_189_5216" x1="40.3832" y1="142.554" x2="120.352" y2="82.489" gradientUnits="userSpaceOnUse">
<stop stop-color="#FF7B7B"/>
<stop offset="1" stop-color="#FFBFBF"/>
</linearGradient>
<clipPath id="clip0_189_5216">
<rect width="45.1875" height="33.9872" fill="white" transform="translate(0 32.8563) rotate(-46.6448)"/>
</clipPath>
</defs>
</svg>
