<svg width="58" height="48" viewBox="0 0 58 48" fill="none" xmlns="http://www.w3.org/2000/svg">
<ellipse cx="25.234" cy="26.3058" rx="23.234" ry="19.0638" fill="#F33838"/>
<ellipse cx="32.9786" cy="26.3058" rx="22.6383" ry="19.0638" fill="#F33838"/>
<ellipse cx="17.4892" cy="27.4973" rx="13.1064" ry="14.2979" fill="url(#paint0_linear_214_1871)"/>
<ellipse cx="38.5764" cy="23.8066" rx="12.9571" ry="14.512" transform="rotate(135 38.5764 23.8066)" fill="url(#paint1_linear_214_1871)"/>
<ellipse cx="28.2129" cy="21.5398" rx="13.1064" ry="14.2979" transform="rotate(90 28.2129 21.5398)" fill="url(#paint2_linear_214_1871)"/>
<path d="M19.2765 2.59811C24.6382 0.810876 26.2268 3.39247 28.8084 5.57687C31.668 1.76409 37.3474 2.59841 40.1276 3.19417C36.5531 3.79018 33.7729 4.58392 31.7871 6.76832C38.3403 8.55562 43.1063 12.7258 40.1276 11.5343C38.3784 10.8346 32.78 8.95265 29.9999 9.15123L24.6382 12.7258L25.8297 9.15123C24.6382 7.95981 22.0566 7.95981 17.4893 8.55556C20.3488 5.21939 24.0424 5.57683 25.8297 6.17251C24.6382 4.38526 22.851 3.19385 19.2765 2.59811Z" fill="#66B01F"/>
<mask id="path-7-outside-1_214_1871" maskUnits="userSpaceOnUse" x="0" y="4.57764e-05" width="58" height="48" fill="black">
<rect fill="white" y="4.57764e-05" width="58" height="48"/>
<path fill-rule="evenodd" clip-rule="evenodd" d="M27.7464 4.62806C25.6944 2.74271 23.8703 1.06678 19.2763 2.59809C22.8508 3.19384 24.638 4.38524 25.8295 6.17249C24.0991 5.59574 20.5815 5.24233 17.7641 8.24861C8.59683 10.801 2 17.9212 2 26.3058C2 36.8344 12.4022 45.3696 25.234 45.3696C26.571 45.3696 27.8815 45.2769 29.1567 45.099C30.3991 45.2769 31.6761 45.3696 32.9787 45.3696C45.4815 45.3696 55.617 36.8344 55.617 26.3058C55.617 15.8781 45.675 7.40581 33.3377 7.24428C32.8346 7.07278 32.3166 6.91276 31.787 6.76831C33.7728 4.58391 36.5529 3.79016 40.1274 3.19415C37.3472 2.5984 31.6678 1.76408 28.8082 5.57686C28.4386 5.26407 28.0893 4.94314 27.7464 4.62806Z"/>
</mask>
<path d="M19.2763 2.59809L18.6439 0.700728C17.7722 0.991302 17.2106 1.83848 17.2825 2.75454C17.3543 3.6706 18.0412 4.41982 18.9475 4.57088L19.2763 2.59809ZM27.7464 4.62806L29.0995 3.15531V3.15531L27.7464 4.62806ZM25.8295 6.17249L25.1971 8.06988C26.0077 8.34004 26.9003 8.06546 27.419 7.38646C27.9376 6.70746 27.9676 5.774 27.4936 5.0631L25.8295 6.17249ZM17.7641 8.24861L18.3005 10.1753C18.6536 10.077 18.9728 9.88363 19.2234 9.61623L17.7641 8.24861ZM29.1567 45.099L29.4402 43.1192C29.2545 43.0926 29.0661 43.0923 28.8803 43.1182L29.1567 45.099ZM33.3377 7.24428L32.6925 9.13734C32.8919 9.20531 33.1009 9.24135 33.3116 9.24411L33.3377 7.24428ZM31.787 6.76831L30.3071 5.42296C29.8389 5.93794 29.6721 6.65926 29.8667 7.32747C30.0613 7.99569 30.5893 8.5147 31.2607 8.69783L31.787 6.76831ZM40.1274 3.19415L40.4563 5.16692C41.4036 5.00897 42.1048 4.20008 42.1269 3.24003C42.1489 2.27997 41.4854 1.43977 40.5465 1.23855L40.1274 3.19415ZM28.8082 5.57686L27.5164 7.10363C27.9368 7.45943 28.4855 7.62606 29.0328 7.56421C29.5801 7.50236 30.0778 7.21751 30.4082 6.77685L28.8082 5.57686ZM19.9088 4.49546C21.9103 3.82827 23.0363 3.94331 23.7871 4.2136C24.633 4.51813 25.3165 5.11156 26.3932 6.10081L29.0995 3.15531C28.1242 2.25921 26.8696 1.072 25.142 0.450054C23.3193 -0.206134 21.2363 -0.163404 18.6439 0.700728L19.9088 4.49546ZM27.4936 5.0631C25.9127 2.69172 23.5578 1.28409 19.6051 0.625307L18.9475 4.57088C22.1438 5.10359 23.3633 6.07877 24.1654 7.28189L27.4936 5.0631ZM19.2234 9.61623C21.3067 7.39324 23.8827 7.63181 25.1971 8.06988L26.4619 4.27511C24.3154 3.55968 19.8562 3.09141 16.3048 6.881L19.2234 9.61623ZM17.2277 6.3219C7.45464 9.0429 0 16.78 0 26.3058H4C4 19.0625 9.73903 12.559 18.3005 10.1753L17.2277 6.3219ZM0 26.3058C0 38.2908 11.6859 47.3696 25.234 47.3696V43.3696C13.1186 43.3696 4 35.378 4 26.3058H0ZM25.234 47.3696C26.6634 47.3696 28.0663 47.2705 29.433 47.0798L28.8803 43.1182C27.6968 43.2833 26.4786 43.3696 25.234 43.3696V47.3696ZM28.8732 47.0788C30.2095 47.2702 31.5812 47.3696 32.9787 47.3696V43.3696C31.7709 43.3696 30.5887 43.2837 29.4402 43.1192L28.8732 47.0788ZM32.9787 47.3696C46.2502 47.3696 57.617 38.2473 57.617 26.3058H53.617C53.617 35.4216 44.7128 43.3696 32.9787 43.3696V47.3696ZM57.617 26.3058C57.617 14.4799 46.4643 5.41597 33.3639 5.24445L33.3116 9.24411C44.8856 9.39564 53.617 17.2762 53.617 26.3058H57.617ZM31.2607 8.69783C31.7481 8.83076 32.2264 8.97846 32.6925 9.13734L33.983 5.35122C33.4428 5.16711 32.8851 4.99477 32.3132 4.83878L31.2607 8.69783ZM39.7984 1.22139C36.1899 1.82309 32.789 2.69288 30.3071 5.42296L33.2668 8.11365C34.7566 6.47494 36.916 5.75724 40.4563 5.16692L39.7984 1.22139ZM30.4082 6.77685C31.3726 5.491 32.8681 4.88901 34.679 4.72406C36.4995 4.55823 38.3783 4.86475 39.7083 5.14976L40.5465 1.23855C39.0963 0.927803 36.7453 0.519282 34.3162 0.740551C31.8774 0.962693 29.1034 1.84993 27.2082 4.37686L30.4082 6.77685ZM26.3932 6.10081C26.7317 6.41184 27.1105 6.76024 27.5164 7.10363L30.1001 4.05009C29.7666 3.7679 29.4468 3.47444 29.0995 3.15531L26.3932 6.10081Z" fill="white" mask="url(#path-7-outside-1_214_1871)"/>
<defs>
<linearGradient id="paint0_linear_214_1871" x1="-5.30451" y1="34.6462" x2="20.766" y2="27.0115" gradientUnits="userSpaceOnUse">
<stop stop-color="white" stop-opacity="0.51"/>
<stop offset="1" stop-color="#D9D9D9" stop-opacity="0"/>
</linearGradient>
<linearGradient id="paint1_linear_214_1871" x1="16.0423" y1="31.0625" x2="41.9207" y2="23.6809" gradientUnits="userSpaceOnUse">
<stop stop-color="white" stop-opacity="0.51"/>
<stop offset="1" stop-color="#D9D9D9" stop-opacity="0"/>
</linearGradient>
<linearGradient id="paint2_linear_214_1871" x1="15.1065" y1="23.5823" x2="31.6061" y2="21.3491" gradientUnits="userSpaceOnUse">
<stop stop-color="#ED0000"/>
<stop offset="1" stop-color="#FF0000" stop-opacity="0"/>
</linearGradient>
</defs>
</svg>
