<svg width="241" height="304" viewBox="0 0 241 304" fill="none" xmlns="http://www.w3.org/2000/svg">
<circle cx="121" cy="184" r="120" fill="url(#paint0_linear_189_5212)"/>
<ellipse cx="95.9461" cy="108.98" rx="4.18327" ry="5.32416" transform="rotate(-21.8872 95.9461 108.98)" fill="white"/>
<ellipse cx="125.102" cy="97.9513" rx="4.18327" ry="5.70445" transform="rotate(-17.8474 125.102 97.9513)" fill="white"/>
<path fill-rule="evenodd" clip-rule="evenodd" d="M106.021 125.949C106.041 125.986 106.06 126.024 106.08 126.061C108.288 130.2 113.432 131.766 117.571 129.559C121.71 127.352 123.276 122.207 121.069 118.068C121.049 118.031 121.029 117.994 121.008 117.956L106.021 125.949Z" fill="white"/>
<g clip-path="url(#clip0_189_5212)">
<path d="M105.395 39.8441C106.162 48.5143 101.323 56.9257 94.9246 59.6079C95.5579 57.8209 96.1686 56.1018 96.8245 54.3601C97.8422 51.5327 98.0914 48.6359 97.7302 45.6476C97.6173 44.742 97.5949 43.6782 96.6906 43.2239C95.6508 42.7241 94.9724 43.6283 94.3393 44.2836C90.9477 47.5596 87.1267 50.3142 83.1248 52.8196C78.9873 55.3926 77.8344 54.8927 76.4561 50.0918C75.8235 47.9178 75.7335 45.5863 74.0384 42.8673C74.3308 51.7177 71.7525 58.4356 64.2011 62.3154C56.4236 66.308 49.6645 63.2858 43.1318 58.6796C44.4427 60.8547 45.9571 62.7587 47.494 64.5947C50.5228 68.2894 50.093 69.8052 45.5713 71.4948C41.14 73.1393 36.6862 74.6253 31.9838 75.2735C31.1473 75.4078 30.1752 75.4966 29.8812 76.3789C29.4967 77.4194 30.3556 78.1225 30.9659 78.78C33.4975 81.3647 36.4587 83.2259 40.0305 84.047C40.98 84.2524 42.0651 84.2769 42.7205 85.4777C40.5953 86.4246 38.3797 86.8507 36.0964 86.8015C27.0762 86.6046 20.7243 82.0213 16.4981 74.2278C11.594 64.0564 15.5754 48.4911 29.5698 44.9621C32.0793 44.3328 33.549 42.751 33.4138 40.1025C32.8964 24.8009 51.3682 13.8331 65.7673 24.0211C68.1181 25.6776 69.9267 25.4544 71.8486 23.8734C80.6213 16.6685 94.1175 18.7066 100.808 27.7041C103.204 30.9224 104.785 34.5466 105.508 38.4862C105.508 38.5994 105.395 39.8441 105.395 39.8441Z" fill="white"/>
<path d="M101.17 27.4103C97.8019 22.9229 92.5802 19.926 86.7929 19.1916C81.1412 18.5026 75.6926 20.0322 71.4872 23.4878C69.6105 25.0463 68.028 25.0435 66.0162 23.614C59.2122 18.8036 50.8477 18.2231 43.6354 22.1035C36.7396 25.8261 32.6014 32.6996 32.8714 40.1467C32.9615 42.4782 31.8083 43.9021 29.3892 44.4863C23.3755 46.0149 18.65 49.8997 16.0718 55.4858C13.2902 61.4563 13.2438 68.7218 16.0009 74.4757C16.0687 74.6116 16.1365 74.7476 16.2495 74.8609C16.2042 75.223 16.272 75.5853 16.385 75.925C20.2261 88.6068 33.2242 94.5145 43.0137 91.046C47.3319 89.5145 47.3771 89.6051 49.3885 93.7507C49.7275 94.4303 50.0664 95.1099 50.3602 95.8121C52.236 99.6858 53.0046 99.9814 56.9612 97.9513C60.7821 95.9888 64.49 93.913 68.3109 91.9505C77.151 87.4845 86.059 83.0412 95.0573 78.8923C99.9182 76.6374 99.9182 76.4111 97.5453 71.5406C83.2564 78.6679 68.9449 85.8631 54.656 92.9904C51.4456 94.5918 50.7448 94.3189 49.4115 90.9667C49.1855 90.4005 48.9822 89.8795 48.711 89.3358C46.4285 84.4202 46.4511 84.4655 50.7695 81.3496C61.7127 73.4016 72.6106 65.363 83.5312 57.3696C84.0738 56.9858 84.5939 56.5567 85.2043 56.1956C88.6861 54.1194 89.5678 54.4152 91.421 58.0172C92.777 60.6225 94.3365 63.0698 95.8733 65.5849C104.352 60.9597 108.852 50.6238 106.457 41.2944C106.322 40.7962 106.299 40.2982 105.938 40.0259C105.96 39.9581 105.915 39.8675 105.938 39.7996C106.051 38.5549 106.051 38.4417 106.006 38.3511C105.193 34.3435 103.588 30.6739 101.17 27.4103ZM104.988 38.5757C105.011 38.7342 104.92 39.3451 104.875 39.8204L104.875 39.9335C105.53 47.585 101.64 55.5228 95.8066 58.6587L95.9423 58.2515C96.3947 57.0074 96.8244 55.8312 97.2768 54.5871C98.2719 51.8275 98.5663 48.795 98.2277 45.6257L98.2052 45.354C98.0923 44.4485 97.9794 43.3165 96.8718 42.794C96.284 42.5214 95.7415 42.5657 95.2893 42.7912C94.8371 43.0168 94.4527 43.3783 94.204 43.6721C94.1362 43.7625 94.0457 43.8076 93.9779 43.898C91.0385 46.7221 87.4887 49.4546 82.8312 52.3436C80.8416 53.5624 79.6433 53.9903 78.9425 53.7175C78.1739 53.4219 77.6316 52.3345 76.9311 49.9114C76.773 49.3679 76.66 48.8019 76.5245 48.1905C76.1404 46.5149 75.7564 44.613 74.4682 42.5963L73.4963 40.9875L73.5412 42.8889C73.8562 52.3505 70.8258 58.3885 63.9753 61.8621C56.1526 65.8773 49.4614 62.5383 43.4486 58.2952L41.4594 56.911L42.7251 58.9956C44.0811 61.2614 45.6633 63.1881 47.1099 64.9561C48.5564 66.7241 49.1214 67.8568 48.9178 68.6939C48.7142 69.531 47.6064 70.2533 45.4133 71.0643C41.2308 72.6414 36.6865 74.1725 31.9163 74.7979L31.871 74.8204C31.0346 74.9548 29.8137 75.1111 29.4292 76.2647C28.9769 77.5088 29.8584 78.3705 30.4687 79.0279L30.6043 79.1866C33.2715 81.93 36.391 83.7689 39.9176 84.6125C40.0984 84.6355 40.2793 84.6584 40.4375 84.7492C41.0479 84.8408 41.5452 84.9322 41.9295 85.363C40.053 86.1292 38.1087 86.4201 36.1193 86.3939C27.619 86.2206 21.3575 82.1581 16.9957 74.0927C14.3742 68.6106 14.3753 61.7072 17.0439 55.9628C19.4863 50.6707 24.0083 46.944 29.7282 45.5055C32.5768 44.7635 34.0918 42.9328 34.0018 40.1487C33.6413 33.0862 37.5534 26.5518 44.1326 22.9871C51.0058 19.3325 58.9408 19.8443 65.4735 24.4505C67.9148 26.175 69.972 26.1107 72.1652 24.2812C76.1672 20.9836 81.3219 19.5441 86.7249 20.1873C92.1957 20.8533 97.1914 23.7366 100.401 28.0201C102.684 31.125 104.22 34.6586 104.988 38.5757Z" fill="#EEE7E7"/>
<path d="M97.5903 71.6314C83.3014 78.7587 68.9899 85.9539 54.701 93.0812C51.4906 94.6826 50.7898 94.4097 49.4565 91.0575C49.2305 90.4913 49.0272 89.9703 48.756 89.4266C46.4735 84.511 46.4961 84.5563 50.8145 81.4404C61.7577 73.4924 72.6556 65.4537 83.5762 57.4604C84.1188 57.0766 84.6388 56.6475 85.2493 56.2864C88.7311 54.2102 89.6128 54.5059 91.466 58.108C92.822 60.7133 94.3815 63.1606 95.9183 65.6756C96.3701 67.7135 98.2237 69.2785 97.5903 71.6314Z" fill="white"/>
</g>
<defs>
<linearGradient id="paint0_linear_189_5212" x1="144.374" y1="163.755" x2="62.2884" y2="266.822" gradientUnits="userSpaceOnUse">
<stop stop-color="#2684FF"/>
<stop offset="1" stop-color="#0756BD"/>
</linearGradient>
<clipPath id="clip0_189_5212">
<rect width="98.2828" height="73.9221" fill="white" transform="translate(0 43.8691) rotate(-26.5101)"/>
</clipPath>
</defs>
</svg>
