<svg width="240" height="328" viewBox="0 0 240 328" fill="none" xmlns="http://www.w3.org/2000/svg">
<path d="M240 213.446C240 297.396 188.956 327.919 129.655 327.919C70.3544 327.919 19.3105 297.396 19.3105 213.446C19.3105 129.496 90.6218 23.908 129.655 23.908C168.689 23.908 240 129.496 240 213.446Z" fill="url(#paint0_linear_189_5213)"/>
<ellipse cx="126.816" cy="144.929" rx="5.41233" ry="6.88842" transform="rotate(-12.3815 126.816 144.929)" fill="white"/>
<ellipse cx="166.377" cy="137.086" rx="5.41233" ry="7.38045" transform="rotate(-8.34167 166.377 137.086)" fill="white"/>
<path fill-rule="evenodd" clip-rule="evenodd" d="M136.048 168.735C136.064 168.787 136.081 168.839 136.099 168.891C138.031 174.644 144.261 177.741 150.014 175.809C155.767 173.877 158.865 167.647 156.932 161.894C156.915 161.842 156.897 161.79 156.879 161.739L136.048 168.735Z" fill="white"/>
<rect x="142.158" y="166.72" width="8.19966" height="7.37969" transform="rotate(-19.9414 142.158 166.72)" fill="#D9D9D9"/>
<g clip-path="url(#clip0_189_5213)">
<path d="M89.7184 28.8769C93.1251 36.1194 91.6096 44.9131 86.9347 49.2541C86.9159 47.5108 86.8989 45.8333 86.9139 44.1221C86.8976 41.3588 86.1958 38.7791 84.938 36.3134C84.5539 35.5674 84.1978 34.656 83.2734 34.55C82.2175 34.4477 81.918 35.443 81.5788 36.2091C79.6877 40.111 77.2607 43.6987 74.5987 47.1284C71.8411 50.6595 70.6875 50.5928 67.978 46.8842C66.7436 45.2076 65.9279 43.2232 63.6038 41.4123C66.6577 48.9607 66.5582 55.5766 61.2668 61.3165C55.8159 67.2253 49.0239 66.7555 41.9259 64.8466C43.7462 66.3096 45.6562 67.474 47.5644 68.5727C51.3487 70.8037 51.4574 72.2484 48.0884 75.1384C44.7833 77.9608 41.4085 80.6535 37.5538 82.7015C36.8742 83.0823 36.063 83.4667 36.0884 84.3214C36.0858 85.3414 37.05 85.6766 37.785 86.0511C40.7887 87.4813 43.9344 88.1508 47.278 87.7291C48.1627 87.6059 49.1073 87.2836 50.0533 88.1128C48.5182 89.603 46.7403 90.6722 44.7534 91.3524C36.9035 94.0376 29.969 92.0912 23.8533 86.7004C16.3999 79.4714 14.9103 64.7729 25.8752 57.2965C27.8426 55.9588 28.6108 54.128 27.6557 51.8843C22.3656 38.8375 34.8414 23.5217 50.4976 27.7597C53.0515 28.4456 54.5423 27.6804 55.7011 25.7072C60.9944 16.71 73.2914 14.1977 81.9153 19.8479C85.0024 21.868 87.5153 24.4963 89.3863 27.6687C89.4221 27.7664 89.7184 28.8769 89.7184 28.8769Z" fill="white"/>
<path d="M82.1345 19.4797C77.8065 16.6715 72.3498 15.737 67.1209 16.9348C62.0234 18.1289 57.8036 21.1741 55.2667 25.4887C54.1398 27.4282 52.7726 27.9267 50.5833 27.3294C43.1865 25.33 35.7813 27.4765 30.7828 33.1095C26.0077 38.5061 24.6107 45.7502 27.2011 52.0941C28.0168 54.0784 27.4719 55.6728 25.5684 56.9429C20.8603 60.1661 18.0102 65.0158 17.5526 70.6546C17.0409 76.6897 19.3006 82.977 23.5022 87.0719C23.6038 87.1678 23.7053 87.2637 23.8388 87.3258C23.9143 87.6527 24.0875 87.944 24.2925 88.2015C31.623 97.9345 44.7148 98.9205 52.0686 92.8274C55.3119 90.1383 55.3796 90.2022 58.4283 93.1446C58.9361 93.624 59.4439 94.1035 59.9198 94.6167C62.7653 97.3673 63.5225 97.3793 66.2957 94.3742C68.9733 91.4705 71.5175 88.5046 74.1951 85.6009C80.4135 78.947 86.6976 72.2913 93.153 65.8611C96.6359 62.3757 96.5643 62.1803 92.974 58.7265C82.8938 69.4027 72.8155 80.1446 62.7354 90.8208C60.4705 93.2196 59.7791 93.2059 57.567 90.7338C57.1927 90.3165 56.8522 89.9311 56.4459 89.5475C52.9194 86.0261 52.9533 86.0581 55.6953 82.0011C62.6272 71.6753 69.4914 61.2857 76.3894 50.928C76.7364 50.4249 77.0496 49.8898 77.4623 49.3848C79.8111 46.4902 80.6659 46.4665 83.406 48.9898C85.4014 50.8098 87.5224 52.429 89.6453 54.1139C95.5011 47.4371 96.115 37.0891 91.0944 29.7926C90.8196 29.4054 90.6426 28.9826 90.2441 28.8621C90.2422 28.7963 90.1745 28.7324 90.1725 28.6667C89.8763 27.5562 89.8405 27.4585 89.7728 27.3946C87.8022 24.192 85.2554 21.5318 82.1345 19.4797ZM88.9655 27.9105C89.0352 28.0402 89.1504 28.5963 89.2618 29.0209L89.2976 29.1186C92.2844 35.5174 91.4388 43.6016 87.3954 48.1553L87.3837 47.7609C87.3804 46.5436 87.3791 45.3921 87.3759 44.1748C87.3615 41.4773 86.6558 38.7661 85.3603 36.137L85.2548 35.9096C84.8707 35.1635 84.415 34.222 83.2933 34.1215C82.6996 34.0722 82.2452 34.2822 81.9262 34.6201C81.6072 34.9579 81.3898 35.3916 81.268 35.724C81.2381 35.8236 81.1743 35.8911 81.1443 35.9907C79.5006 39.3593 77.3008 42.842 74.1942 46.8104C72.8623 48.4924 71.9632 49.2411 71.2718 49.2274C70.5147 49.2155 69.7023 48.4484 68.3306 46.5781C68.022 46.159 67.7453 45.706 67.4348 45.2211C66.5728 43.8961 65.6393 42.3756 63.8887 41.0423L62.5405 39.961L63.1811 41.5883C66.4479 49.6572 65.7428 55.8293 60.928 60.9966C55.4452 66.9392 48.6116 66.1745 42.0774 64.4145L39.9219 63.8491L41.6744 65.2482C43.5623 66.7751 45.5382 67.9377 47.3467 69.0062C49.1552 70.0747 50.0015 70.8738 50.0907 71.6609C50.1799 72.4481 49.4521 73.4224 47.8154 74.8167C44.7036 77.5022 41.265 80.2625 37.3446 82.3123L37.3127 82.3461C36.6331 82.7269 35.6286 83.2482 35.6618 84.3659C35.665 85.5832 36.6988 86.0481 37.4338 86.4225L37.6011 86.5166C40.7722 88.0408 44.0474 88.641 47.3591 88.253C47.5225 88.2156 47.6859 88.1782 47.8513 88.2065C48.4073 88.0924 48.8656 88.0139 49.3336 88.2641C47.9561 89.5197 46.3696 90.3862 44.6438 90.9933C37.2503 93.5342 30.5585 92.0089 24.2398 86.4263C20.2413 82.5232 18.0571 76.5628 18.5427 70.7588C18.9763 65.4167 21.7007 60.768 26.1836 57.7155C28.4081 56.1733 29.1365 54.1132 28.1776 51.738C25.6308 45.7548 26.94 38.875 31.4918 33.715C36.2689 28.3842 43.2816 26.3144 50.3795 28.2233C53.0331 28.9394 54.7888 28.2327 56.1032 25.959C58.5145 21.8453 62.5091 18.9709 67.3774 17.816C72.3114 16.6593 77.537 17.5673 81.6638 20.2495C84.6174 22.2075 87.0626 24.7718 88.9655 27.9105Z" fill="#EEE7E7"/>
<path d="M93.0418 58.7906C82.9616 69.4668 72.8833 80.2088 62.8031 90.885C60.5383 93.2837 59.8469 93.27 57.6348 90.7979C57.2604 90.3806 56.92 89.9952 56.5137 89.6117C52.9872 86.0903 53.021 86.1223 55.7631 82.0652C62.695 71.7395 69.5592 61.3498 76.4572 50.9922C76.8042 50.489 77.1173 49.9539 77.5301 49.449C79.8789 46.5544 80.7337 46.5307 83.4738 49.0539C85.4692 50.874 87.5902 52.4931 89.7131 54.178C90.7482 55.7944 92.8438 56.5589 93.0418 58.7906Z" fill="white"/>
</g>
<defs>
<linearGradient id="paint0_linear_189_5213" x1="80.7684" y1="285.108" x2="240.706" y2="164.978" gradientUnits="userSpaceOnUse">
<stop stop-color="#FF7B7B"/>
<stop offset="1" stop-color="#FFBFBF"/>
</linearGradient>
<clipPath id="clip0_189_5213">
<rect width="90.375" height="67.9743" fill="white" transform="translate(0 65.7126) rotate(-46.6448)"/>
</clipPath>
</defs>
</svg>
